<?xml version="1.0" encoding="utf-8" standalone="no"?>
<!DOCTYPE svg PUBLIC "-//W3C//DTD SVG 1.1//EN"
  "http://www.w3.org/Graphics/SVG/1.1/DTD/svg11.dtd">
<svg xmlns:xlink="http://www.w3.org/1999/xlink" width="397.876562pt" height="174.8142pt" viewBox="0 0 397.876562 174.8142" xmlns="http://www.w3.org/2000/svg" version="1.1">
 <metadata>
  <rdf:RDF xmlns:dc="http://purl.org/dc/elements/1.1/" xmlns:cc="http://creativecommons.org/ns#" xmlns:rdf="http://www.w3.org/1999/02/22-rdf-syntax-ns#">
   <cc:Work>
    <dc:type rdf:resource="http://purl.org/dc/dcmitype/StillImage"/>
    <dc:date>2026-05-18T22:24:12.397558</dc:date>
    <dc:format>image/svg+xml</dc:format>
    <dc:creator>
     <cc:Agent>
      <dc:title>Matplotlib v3.10.8, https://matplotlib.org/</dc:title>
     </cc:Agent>
    </dc:creator>
   </cc:Work>
  </rdf:RDF>
 </metadata>
 <defs>
  <style type="text/css">*{stroke-linejoin: round; stroke-linecap: butt}</style>
 </defs>
 <g id="figure_1">
  <g id="patch_1">
   <path d="M 0 174.8142
L 397.876562 174.8142
L 397.876562 0
L 0 0
z
" style="fill: #ffffff"/>
  </g>
  <g id="axes_1">
   <g id="patch_2">
    <path d="M 37.161563 151.492
L 390.676562 151.492
L 390.676562 7.2
L 37.161563 7.2
z
" style="fill: #ffffff"/>
   </g>
   <g id="line2d_1">
    <path d="M 76.267204 151.492
L 76.267204 7.2
" clip-path="url(#pd75e0815ba)" style="fill: none; stroke: #f0f1f3; stroke-width: 0.7; stroke-linecap: square"/>
   </g>
   <g id="line2d_2">
    <path d="M 145.093133 151.492
L 145.093133 7.2
" clip-path="url(#pd75e0815ba)" style="fill: none; stroke: #f0f1f3; stroke-width: 0.7; stroke-linecap: square"/>
   </g>
   <g id="line2d_3">
    <path d="M 213.919063 151.492
L 213.919063 7.2
" clip-path="url(#pd75e0815ba)" style="fill: none; stroke: #f0f1f3; stroke-width: 0.7; stroke-linecap: square"/>
   </g>
   <g id="line2d_4">
    <path d="M 282.744992 151.492
L 282.744992 7.2
" clip-path="url(#pd75e0815ba)" style="fill: none; stroke: #f0f1f3; stroke-width: 0.7; stroke-linecap: square"/>
   </g>
   <g id="line2d_5">
    <path d="M 351.570921 151.492
L 351.570921 7.2
" clip-path="url(#pd75e0815ba)" style="fill: none; stroke: #f0f1f3; stroke-width: 0.7; stroke-linecap: square"/>
   </g>
   <g id="line2d_6">
    <path d="M 37.161563 129.004935
L 390.676562 129.004935
" clip-path="url(#pd75e0815ba)" style="fill: none; stroke: #f0f1f3; stroke-width: 0.7; stroke-linecap: square"/>
   </g>
   <g id="line2d_7">
    <path d="M 37.161563 96.211299
L 390.676562 96.211299
" clip-path="url(#pd75e0815ba)" style="fill: none; stroke: #f0f1f3; stroke-width: 0.7; stroke-linecap: square"/>
   </g>
   <g id="line2d_8">
    <path d="M 37.161563 63.417662
L 390.676562 63.417662
" clip-path="url(#pd75e0815ba)" style="fill: none; stroke: #f0f1f3; stroke-width: 0.7; stroke-linecap: square"/>
   </g>
   <g id="line2d_9">
    <path d="M 37.161563 30.624026
L 390.676562 30.624026
" clip-path="url(#pd75e0815ba)" style="fill: none; stroke: #f0f1f3; stroke-width: 0.7; stroke-linecap: square"/>
   </g>
   <g id="matplotlib.axis_1">
    <g id="xtick_1">
     <g id="line2d_10"/>
     <g id="text_1">
      <text style="font-size: 6.4px; font-family: 'Arial', 'DejaVu Sans', 'Liberation Sans', sans-serif" transform="translate(60.080704 159.573)">Endocrine /</text>
      <text style="font-size: 6.4px; font-family: 'Arial', 'DejaVu Sans', 'Liberation Sans', sans-serif" transform="translate(63.636704 166.3422)">epithelial</text>
     </g>
    </g>
    <g id="xtick_2">
     <g id="line2d_11"/>
     <g id="text_2">
      <text style="font-size: 6.4px; font-family: 'Arial', 'DejaVu Sans', 'Liberation Sans', sans-serif" transform="translate(129.620633 159.573)">Metabolic /</text>
      <text style="font-size: 6.4px; font-family: 'Arial', 'DejaVu Sans', 'Liberation Sans', sans-serif" transform="translate(136.559133 166.3422)">stress</text>
     </g>
    </g>
    <g id="xtick_3">
     <g id="line2d_12"/>
     <g id="text_3">
      <text style="font-size: 6.4px; font-family: 'Arial', 'DejaVu Sans', 'Liberation Sans', sans-serif" transform="translate(201.116563 159.573)">Stromal /</text>
      <text style="font-size: 6.4px; font-family: 'Arial', 'DejaVu Sans', 'Liberation Sans', sans-serif" transform="translate(199.342563 166.3422)">CAF-ECM</text>
     </g>
    </g>
    <g id="xtick_4">
     <g id="line2d_13"/>
     <g id="text_4">
      <text style="font-size: 6.4px; font-family: 'Arial', 'DejaVu Sans', 'Liberation Sans', sans-serif" transform="translate(269.408492 159.573)">Immune /</text>
      <text style="font-size: 6.4px; font-family: 'Arial', 'DejaVu Sans', 'Liberation Sans', sans-serif" transform="translate(262.470992 166.3422)">TLS-exclusion</text>
     </g>
    </g>
    <g id="xtick_5">
     <g id="line2d_14"/>
     <g id="text_5">
      <text style="font-size: 6.4px; font-family: 'Arial', 'DejaVu Sans', 'Liberation Sans', sans-serif" transform="translate(337.874921 159.573)">Invasion /</text>
      <text style="font-size: 6.4px; font-family: 'Arial', 'DejaVu Sans', 'Liberation Sans', sans-serif" transform="translate(344.816421 166.3422)">EMT</text>
     </g>
    </g>
   </g>
   <g id="matplotlib.axis_2">
    <g id="ytick_1">
     <g id="line2d_15"/>
     <g id="text_6">
      <text style="font-weight: 700; font-size: 6.8px; font-family: 'Arial', 'DejaVu Sans', 'Liberation Sans', sans-serif; fill: #3775ba" transform="translate(12.4955 128.333966)">Breast</text>
      <text style="font-weight: 700; font-size: 6.8px; font-family: 'Arial', 'DejaVu Sans', 'Liberation Sans', sans-serif; fill: #3775ba" transform="translate(18.5475 135.516679)">PLIP</text>
     </g>
    </g>
    <g id="ytick_2">
     <g id="line2d_16"/>
     <g id="text_7">
      <text style="font-weight: 700; font-size: 6.8px; font-family: 'Arial', 'DejaVu Sans', 'Liberation Sans', sans-serif; fill: #3775ba" transform="translate(12.4955 95.54033)">Breast</text>
      <text style="font-weight: 700; font-size: 6.8px; font-family: 'Arial', 'DejaVu Sans', 'Liberation Sans', sans-serif; fill: #3775ba" transform="translate(21.950688 102.723042)">UNI</text>
     </g>
    </g>
    <g id="ytick_3">
     <g id="line2d_17"/>
     <g id="text_8">
      <text style="font-weight: 700; font-size: 6.8px; font-family: 'Arial', 'DejaVu Sans', 'Liberation Sans', sans-serif; fill: #e9a6a1" transform="translate(7.2 62.746694)">Cervical</text>
      <text style="font-weight: 700; font-size: 6.8px; font-family: 'Arial', 'DejaVu Sans', 'Liberation Sans', sans-serif; fill: #e9a6a1" transform="translate(18.5475 69.929406)">PLIP</text>
     </g>
    </g>
    <g id="ytick_4">
     <g id="line2d_18"/>
     <g id="text_9">
      <text style="font-weight: 700; font-size: 6.8px; font-family: 'Arial', 'DejaVu Sans', 'Liberation Sans', sans-serif; fill: #e9a6a1" transform="translate(7.2 29.953057)">Cervical</text>
      <text style="font-weight: 700; font-size: 6.8px; font-family: 'Arial', 'DejaVu Sans', 'Liberation Sans', sans-serif; fill: #e9a6a1" transform="translate(21.950688 37.13577)">UNI</text>
     </g>
    </g>
   </g>
   <g id="text_10">
    <text style="font-size: 4.9px; font-family: 'Arial', 'DejaVu Sans', 'Liberation Sans', sans-serif; text-anchor: middle; fill: #767676" x="351.570921" y="121.268731" transform="rotate(-0 351.570921 121.268731)">not detected</text>
   </g>
   <g id="PathCollection_1">
    <defs>
     <path id="mb177472a61" d="M -2.828427 2.828427
L 2.828427 -2.828427
M -2.828427 -2.828427
L 2.828427 2.828427
" style="stroke: #767676; stroke-width: 0.9"/>
    </defs>
    <g clip-path="url(#pd75e0815ba)">
     <use xlink:href="#mb177472a61" x="351.570921" y="129.004935" style="fill: #767676; stroke: #767676; stroke-width: 0.9"/>
    </g>
   </g>
   <g id="PathCollection_2">
    <defs>
     <path id="m669be2f894" d="M 0 8.596609
C 2.279847 8.596609 4.466625 7.690816 6.078721 6.078721
C 7.690816 4.466625 8.596609 2.279847 8.596609 0
C 8.596609 -2.279847 7.690816 -4.466625 6.078721 -6.078721
C 4.466625 -7.690816 2.279847 -8.596609 0 -8.596609
C -2.279847 -8.596609 -4.466625 -7.690816 -6.078721 -6.078721
C -7.690816 -4.466625 -8.596609 -2.279847 -8.596609 0
C -8.596609 2.279847 -7.690816 4.466625 -6.078721 6.078721
C -4.466625 7.690816 -2.279847 8.596609 0 8.596609
z
" style="stroke: #272727; stroke-opacity: 0.95; stroke-width: 0.45"/>
    </defs>
    <g clip-path="url(#pd75e0815ba)">
     <use xlink:href="#m669be2f894" x="76.267204" y="129.004935" style="fill: #3775ba; fill-opacity: 0.95; stroke: #272727; stroke-opacity: 0.95; stroke-width: 0.45"/>
    </g>
   </g>
   <g id="PathCollection_3">
    <defs>
     <path id="m0108380b27" d="M 0 7.925117
C 2.101766 7.925117 4.117731 7.090077 5.603904 5.603904
C 7.090077 4.117731 7.925117 2.101766 7.925117 0
C 7.925117 -2.101766 7.090077 -4.117731 5.603904 -5.603904
C 4.117731 -7.090077 2.101766 -7.925117 0 -7.925117
C -2.101766 -7.925117 -4.117731 -7.090077 -5.603904 -5.603904
C -7.090077 -4.117731 -7.925117 -2.101766 -7.925117 0
C -7.925117 2.101766 -7.090077 4.117731 -5.603904 5.603904
C -4.117731 7.090077 -2.101766 7.925117 0 7.925117
z
" style="stroke: #272727; stroke-opacity: 0.95; stroke-width: 0.45"/>
    </defs>
    <g clip-path="url(#pd75e0815ba)">
     <use xlink:href="#m0108380b27" x="145.093133" y="129.004935" style="fill: #3775ba; fill-opacity: 0.95; stroke: #272727; stroke-opacity: 0.95; stroke-width: 0.45"/>
    </g>
   </g>
   <g id="PathCollection_4">
    <defs>
     <path id="mbe90d555d1" d="M 0 6.77814
C 1.797584 6.77814 3.521785 6.063952 4.792869 4.792869
C 6.063952 3.521785 6.77814 1.797584 6.77814 0
C 6.77814 -1.797584 6.063952 -3.521785 4.792869 -4.792869
C 3.521785 -6.063952 1.797584 -6.77814 0 -6.77814
C -1.797584 -6.77814 -3.521785 -6.063952 -4.792869 -4.792869
C -6.063952 -3.521785 -6.77814 -1.797584 -6.77814 0
C -6.77814 1.797584 -6.063952 3.521785 -4.792869 4.792869
C -3.521785 6.063952 -1.797584 6.77814 0 6.77814
z
" style="stroke: #272727; stroke-opacity: 0.48; stroke-width: 0.45"/>
    </defs>
    <g clip-path="url(#pd75e0815ba)">
     <use xlink:href="#mbe90d555d1" x="213.919063" y="129.004935" style="fill: #3775ba; fill-opacity: 0.48; stroke: #272727; stroke-opacity: 0.48; stroke-width: 0.45"/>
    </g>
   </g>
   <g id="PathCollection_5">
    <defs>
     <path id="m79823f96ad" d="M 0 7.362645
C 1.952596 7.362645 3.825482 6.58687 5.206176 5.206176
C 6.58687 3.825482 7.362645 1.952596 7.362645 0
C 7.362645 -1.952596 6.58687 -3.825482 5.206176 -5.206176
C 3.825482 -6.58687 1.952596 -7.362645 0 -7.362645
C -1.952596 -7.362645 -3.825482 -6.58687 -5.206176 -5.206176
C -6.58687 -3.825482 -7.362645 -1.952596 -7.362645 0
C -7.362645 1.952596 -6.58687 3.825482 -5.206176 5.206176
C -3.825482 6.58687 -1.952596 7.362645 0 7.362645
z
" style="stroke: #272727; stroke-opacity: 0.78; stroke-width: 0.45"/>
    </defs>
    <g clip-path="url(#pd75e0815ba)">
     <use xlink:href="#m79823f96ad" x="282.744992" y="129.004935" style="fill: #3775ba; fill-opacity: 0.78; stroke: #272727; stroke-opacity: 0.78; stroke-width: 0.45"/>
    </g>
   </g>
   <g id="PathCollection_6">
    <defs>
     <path id="m9c4a43e302" d="M 0 8.533328
C 2.263065 8.533328 4.433745 7.634202 6.033974 6.033974
C 7.634202 4.433745 8.533328 2.263065 8.533328 0
C 8.533328 -2.263065 7.634202 -4.433745 6.033974 -6.033974
C 4.433745 -7.634202 2.263065 -8.533328 0 -8.533328
C -2.263065 -8.533328 -4.433745 -7.634202 -6.033974 -6.033974
C -7.634202 -4.433745 -8.533328 -2.263065 -8.533328 0
C -8.533328 2.263065 -7.634202 4.433745 -6.033974 6.033974
C -4.433745 7.634202 -2.263065 8.533328 0 8.533328
z
" style="stroke: #272727; stroke-opacity: 0.95; stroke-width: 0.45"/>
    </defs>
    <g clip-path="url(#pd75e0815ba)">
     <use xlink:href="#m9c4a43e302" x="76.267204" y="96.211299" style="fill: #3775ba; fill-opacity: 0.95; stroke: #272727; stroke-opacity: 0.95; stroke-width: 0.45"/>
    </g>
   </g>
   <g id="PathCollection_7">
    <defs>
     <path id="m99dff09108" d="M 0 7.691316
C 2.039761 7.691316 3.996253 6.88091 5.438582 5.438582
C 6.88091 3.996253 7.691316 2.039761 7.691316 0
C 7.691316 -2.039761 6.88091 -3.996253 5.438582 -5.438582
C 3.996253 -6.88091 2.039761 -7.691316 0 -7.691316
C -2.039761 -7.691316 -3.996253 -6.88091 -5.438582 -5.438582
C -6.88091 -3.996253 -7.691316 -2.039761 -7.691316 0
C -7.691316 2.039761 -6.88091 3.996253 -5.438582 5.438582
C -3.996253 6.88091 -2.039761 7.691316 0 7.691316
z
" style="stroke: #272727; stroke-opacity: 0.95; stroke-width: 0.45"/>
    </defs>
    <g clip-path="url(#pd75e0815ba)">
     <use xlink:href="#m99dff09108" x="145.093133" y="96.211299" style="fill: #3775ba; fill-opacity: 0.95; stroke: #272727; stroke-opacity: 0.95; stroke-width: 0.45"/>
    </g>
   </g>
   <g id="PathCollection_8">
    <defs>
     <path id="m21f6bbc34b" d="M 0 7.129105
C 1.890661 7.129105 3.704139 6.377937 5.041038 5.041038
C 6.377937 3.704139 7.129105 1.890661 7.129105 0
C 7.129105 -1.890661 6.377937 -3.704139 5.041038 -5.041038
C 3.704139 -6.377937 1.890661 -7.129105 0 -7.129105
C -1.890661 -7.129105 -3.704139 -6.377937 -5.041038 -5.041038
C -6.377937 -3.704139 -7.129105 -1.890661 -7.129105 0
C -7.129105 1.890661 -6.377937 3.704139 -5.041038 5.041038
C -3.704139 6.377937 -1.890661 7.129105 0 7.129105
z
" style="stroke: #272727; stroke-opacity: 0.78; stroke-width: 0.45"/>
    </defs>
    <g clip-path="url(#pd75e0815ba)">
     <use xlink:href="#m21f6bbc34b" x="213.919063" y="96.211299" style="fill: #3775ba; fill-opacity: 0.78; stroke: #272727; stroke-opacity: 0.78; stroke-width: 0.45"/>
    </g>
   </g>
   <g id="PathCollection_9">
    <defs>
     <path id="m652c2743b9" d="M 0 7.231712
C 1.917873 7.231712 3.757452 6.469734 5.113593 5.113593
C 6.469734 3.757452 7.231712 1.917873 7.231712 0
C 7.231712 -1.917873 6.469734 -3.757452 5.113593 -5.113593
C 3.757452 -6.469734 1.917873 -7.231712 0 -7.231712
C -1.917873 -7.231712 -3.757452 -6.469734 -5.113593 -5.113593
C -6.469734 -3.757452 -7.231712 -1.917873 -7.231712 0
C -7.231712 1.917873 -6.469734 3.757452 -5.113593 5.113593
C -3.757452 6.469734 -1.917873 7.231712 0 7.231712
z
" style="stroke: #272727; stroke-opacity: 0.78; stroke-width: 0.45"/>
    </defs>
    <g clip-path="url(#pd75e0815ba)">
     <use xlink:href="#m652c2743b9" x="282.744992" y="96.211299" style="fill: #3775ba; fill-opacity: 0.78; stroke: #272727; stroke-opacity: 0.78; stroke-width: 0.45"/>
    </g>
   </g>
   <g id="PathCollection_10">
    <defs>
     <path id="m877fb40212" d="M 0 6.568417
C 1.741964 6.568417 3.412817 5.876327 4.644572 4.644572
C 5.876327 3.412817 6.568417 1.741964 6.568417 0
C 6.568417 -1.741964 5.876327 -3.412817 4.644572 -4.644572
C 3.412817 -5.876327 1.741964 -6.568417 0 -6.568417
C -1.741964 -6.568417 -3.412817 -5.876327 -4.644572 -4.644572
C -5.876327 -3.412817 -6.568417 -1.741964 -6.568417 0
C -6.568417 1.741964 -5.876327 3.412817 -4.644572 4.644572
C -3.412817 5.876327 -1.741964 6.568417 0 6.568417
z
" style="stroke: #272727; stroke-opacity: 0.48; stroke-width: 0.45"/>
    </defs>
    <g clip-path="url(#pd75e0815ba)">
     <use xlink:href="#m877fb40212" x="351.570921" y="96.211299" style="fill: #3775ba; fill-opacity: 0.48; stroke: #272727; stroke-opacity: 0.48; stroke-width: 0.45"/>
    </g>
   </g>
   <g id="PathCollection_11">
    <defs>
     <path id="md82eb61b70" d="M 0 8.128919
C 2.155815 8.128919 4.223623 7.272405 5.748014 5.748014
C 7.272405 4.223623 8.128919 2.155815 8.128919 0
C 8.128919 -2.155815 7.272405 -4.223623 5.748014 -5.748014
C 4.223623 -7.272405 2.155815 -8.128919 0 -8.128919
C -2.155815 -8.128919 -4.223623 -7.272405 -5.748014 -5.748014
C -7.272405 -4.223623 -8.128919 -2.155815 -8.128919 0
C -8.128919 2.155815 -7.272405 4.223623 -5.748014 5.748014
C -4.223623 7.272405 -2.155815 8.128919 0 8.128919
z
" style="stroke: #272727; stroke-opacity: 0.95; stroke-width: 0.45"/>
    </defs>
    <g clip-path="url(#pd75e0815ba)">
     <use xlink:href="#md82eb61b70" x="76.267204" y="63.417662" style="fill: #e9a6a1; fill-opacity: 0.95; stroke: #272727; stroke-opacity: 0.95; stroke-width: 0.45"/>
    </g>
   </g>
   <g id="PathCollection_12">
    <defs>
     <path id="mfff46554ce" d="M 0 7.901681
C 2.09555 7.901681 4.105555 7.06911 5.587332 5.587332
C 7.06911 4.105555 7.901681 2.09555 7.901681 0
C 7.901681 -2.09555 7.06911 -4.105555 5.587332 -5.587332
C 4.105555 -7.06911 2.09555 -7.901681 0 -7.901681
C -2.09555 -7.901681 -4.105555 -7.06911 -5.587332 -5.587332
C -7.06911 -4.105555 -7.901681 -2.09555 -7.901681 0
C -7.901681 2.09555 -7.06911 4.105555 -5.587332 5.587332
C -4.105555 7.06911 -2.09555 7.901681 0 7.901681
z
" style="stroke: #272727; stroke-opacity: 0.95; stroke-width: 0.45"/>
    </defs>
    <g clip-path="url(#pd75e0815ba)">
     <use xlink:href="#mfff46554ce" x="145.093133" y="63.417662" style="fill: #e9a6a1; fill-opacity: 0.95; stroke: #272727; stroke-opacity: 0.95; stroke-width: 0.45"/>
    </g>
   </g>
   <g id="PathCollection_13">
    <defs>
     <path id="m2a35b9bad6" d="M 0 8.335878
C 2.210701 8.335878 4.331154 7.457557 5.894356 5.894356
C 7.457557 4.331154 8.335878 2.210701 8.335878 0
C 8.335878 -2.210701 7.457557 -4.331154 5.894356 -5.894356
C 4.331154 -7.457557 2.210701 -8.335878 0 -8.335878
C -2.210701 -8.335878 -4.331154 -7.457557 -5.894356 -5.894356
C -7.457557 -4.331154 -8.335878 -2.210701 -8.335878 0
C -8.335878 2.210701 -7.457557 4.331154 -5.894356 5.894356
C -4.331154 7.457557 -2.210701 8.335878 0 8.335878
z
" style="stroke: #272727; stroke-opacity: 0.95; stroke-width: 0.45"/>
    </defs>
    <g clip-path="url(#pd75e0815ba)">
     <use xlink:href="#m2a35b9bad6" x="213.919063" y="63.417662" style="fill: #e9a6a1; fill-opacity: 0.95; stroke: #272727; stroke-opacity: 0.95; stroke-width: 0.45"/>
    </g>
   </g>
   <g id="PathCollection_14">
    <defs>
     <path id="m3f4b39a712" d="M 0 8.310602
C 2.203997 8.310602 4.318021 7.434944 5.876483 5.876483
C 7.434944 4.318021 8.310602 2.203997 8.310602 0
C 8.310602 -2.203997 7.434944 -4.318021 5.876483 -5.876483
C 4.318021 -7.434944 2.203997 -8.310602 0 -8.310602
C -2.203997 -8.310602 -4.318021 -7.434944 -5.876483 -5.876483
C -7.434944 -4.318021 -8.310602 -2.203997 -8.310602 0
C -8.310602 2.203997 -7.434944 4.318021 -5.876483 5.876483
C -4.318021 7.434944 -2.203997 8.310602 0 8.310602
z
" style="stroke: #272727; stroke-opacity: 0.95; stroke-width: 0.45"/>
    </defs>
    <g clip-path="url(#pd75e0815ba)">
     <use xlink:href="#m3f4b39a712" x="282.744992" y="63.417662" style="fill: #e9a6a1; fill-opacity: 0.95; stroke: #272727; stroke-opacity: 0.95; stroke-width: 0.45"/>
    </g>
   </g>
   <g id="PathCollection_15">
    <defs>
     <path id="m67295f768e" d="M 0 8.319197
C 2.206277 8.319197 4.322487 7.442634 5.882561 5.882561
C 7.442634 4.322487 8.319197 2.206277 8.319197 0
C 8.319197 -2.206277 7.442634 -4.322487 5.882561 -5.882561
C 4.322487 -7.442634 2.206277 -8.319197 0 -8.319197
C -2.206277 -8.319197 -4.322487 -7.442634 -5.882561 -5.882561
C -7.442634 -4.322487 -8.319197 -2.206277 -8.319197 0
C -8.319197 2.206277 -7.442634 4.322487 -5.882561 5.882561
C -4.322487 7.442634 -2.206277 8.319197 0 8.319197
z
" style="stroke: #272727; stroke-opacity: 0.95; stroke-width: 0.45"/>
    </defs>
    <g clip-path="url(#pd75e0815ba)">
     <use xlink:href="#m67295f768e" x="351.570921" y="63.417662" style="fill: #e9a6a1; fill-opacity: 0.95; stroke: #272727; stroke-opacity: 0.95; stroke-width: 0.45"/>
    </g>
   </g>
   <g id="PathCollection_16">
    <defs>
     <path id="m74256ba42f" d="M 0 8.16199
C 2.164585 8.16199 4.240806 7.301991 5.771399 5.771399
C 7.301991 4.240806 8.16199 2.164585 8.16199 0
C 8.16199 -2.164585 7.301991 -4.240806 5.771399 -5.771399
C 4.240806 -7.301991 2.164585 -8.16199 0 -8.16199
C -2.164585 -8.16199 -4.240806 -7.301991 -5.771399 -5.771399
C -7.301991 -4.240806 -8.16199 -2.164585 -8.16199 0
C -8.16199 2.164585 -7.301991 4.240806 -5.771399 5.771399
C -4.240806 7.301991 -2.164585 8.16199 0 8.16199
z
" style="stroke: #272727; stroke-opacity: 0.95; stroke-width: 0.45"/>
    </defs>
    <g clip-path="url(#pd75e0815ba)">
     <use xlink:href="#m74256ba42f" x="76.267204" y="30.624026" style="fill: #e9a6a1; fill-opacity: 0.95; stroke: #272727; stroke-opacity: 0.95; stroke-width: 0.45"/>
    </g>
   </g>
   <g id="PathCollection_17">
    <defs>
     <path id="mc928bcbc2a" d="M 0 8.336368
C 2.210831 8.336368 4.331409 7.457995 5.894702 5.894702
C 7.457995 4.331409 8.336368 2.210831 8.336368 0
C 8.336368 -2.210831 7.457995 -4.331409 5.894702 -5.894702
C 4.331409 -7.457995 2.210831 -8.336368 0 -8.336368
C -2.210831 -8.336368 -4.331409 -7.457995 -5.894702 -5.894702
C -7.457995 -4.331409 -8.336368 -2.210831 -8.336368 0
C -8.336368 2.210831 -7.457995 4.331409 -5.894702 5.894702
C -4.331409 7.457995 -2.210831 8.336368 0 8.336368
z
" style="stroke: #272727; stroke-opacity: 0.95; stroke-width: 0.45"/>
    </defs>
    <g clip-path="url(#pd75e0815ba)">
     <use xlink:href="#mc928bcbc2a" x="145.093133" y="30.624026" style="fill: #e9a6a1; fill-opacity: 0.95; stroke: #272727; stroke-opacity: 0.95; stroke-width: 0.45"/>
    </g>
   </g>
   <g id="PathCollection_18">
    <defs>
     <path id="mf0c135e866" d="M 0 8.704877
C 2.30856 8.704877 4.522879 7.787677 6.155278 6.155278
C 7.787677 4.522879 8.704877 2.30856 8.704877 0
C 8.704877 -2.30856 7.787677 -4.522879 6.155278 -6.155278
C 4.522879 -7.787677 2.30856 -8.704877 0 -8.704877
C -2.30856 -8.704877 -4.522879 -7.787677 -6.155278 -6.155278
C -7.787677 -4.522879 -8.704877 -2.30856 -8.704877 0
C -8.704877 2.30856 -7.787677 4.522879 -6.155278 6.155278
C -4.522879 7.787677 -2.30856 8.704877 0 8.704877
z
" style="stroke: #272727; stroke-opacity: 0.95; stroke-width: 0.45"/>
    </defs>
    <g clip-path="url(#pd75e0815ba)">
     <use xlink:href="#mf0c135e866" x="213.919063" y="30.624026" style="fill: #e9a6a1; fill-opacity: 0.95; stroke: #272727; stroke-opacity: 0.95; stroke-width: 0.45"/>
    </g>
   </g>
   <g id="PathCollection_19">
    <defs>
     <path id="me15dc07ae0" d="M 0 8.817097
C 2.338322 8.817097 4.581186 7.888072 6.234629 6.234629
C 7.888072 4.581186 8.817097 2.338322 8.817097 0
C 8.817097 -2.338322 7.888072 -4.581186 6.234629 -6.234629
C 4.581186 -7.888072 2.338322 -8.817097 0 -8.817097
C -2.338322 -8.817097 -4.581186 -7.888072 -6.234629 -6.234629
C -7.888072 -4.581186 -8.817097 -2.338322 -8.817097 0
C -8.817097 2.338322 -7.888072 4.581186 -6.234629 6.234629
C -4.581186 7.888072 -2.338322 8.817097 0 8.817097
z
" style="stroke: #272727; stroke-opacity: 0.95; stroke-width: 0.45"/>
    </defs>
    <g clip-path="url(#pd75e0815ba)">
     <use xlink:href="#me15dc07ae0" x="282.744992" y="30.624026" style="fill: #e9a6a1; fill-opacity: 0.95; stroke: #272727; stroke-opacity: 0.95; stroke-width: 0.45"/>
    </g>
   </g>
   <g id="PathCollection_20">
    <defs>
     <path id="m06e36d2b5a" d="M 0 8.203174
C 2.175507 8.203174 4.262204 7.338835 5.80052 5.80052
C 7.338835 4.262204 8.203174 2.175507 8.203174 0
C 8.203174 -2.175507 7.338835 -4.262204 5.80052 -5.80052
C 4.262204 -7.338835 2.175507 -8.203174 0 -8.203174
C -2.175507 -8.203174 -4.262204 -7.338835 -5.80052 -5.80052
C -7.338835 -4.262204 -8.203174 -2.175507 -8.203174 0
C -8.203174 2.175507 -7.338835 4.262204 -5.80052 5.80052
C -4.262204 7.338835 -2.175507 8.203174 0 8.203174
z
" style="stroke: #272727; stroke-opacity: 0.95; stroke-width: 0.45"/>
    </defs>
    <g clip-path="url(#pd75e0815ba)">
     <use xlink:href="#m06e36d2b5a" x="351.570921" y="30.624026" style="fill: #e9a6a1; fill-opacity: 0.95; stroke: #272727; stroke-opacity: 0.95; stroke-width: 0.45"/>
    </g>
   </g>
   <g id="text_11">
    <text style="font-weight: 700; font-size: 5.5px; font-family: 'Arial', 'DejaVu Sans', 'Liberation Sans', sans-serif; text-anchor: middle; fill: #272727" x="76.267204" y="130.430638" transform="rotate(-0 76.267204 130.430638)">0.60</text>
   </g>
   <g id="text_12">
    <text style="font-size: 4.6px; font-family: 'Arial', 'DejaVu Sans', 'Liberation Sans', sans-serif; text-anchor: middle; fill: #4d4d4d" x="76.267204" y="121.053996" transform="rotate(-0 76.267204 121.053996)">Luminal ER</text>
   </g>
   <g id="text_13">
    <text style="font-weight: 700; font-size: 5.5px; font-family: 'Arial', 'DejaVu Sans', 'Liberation Sans', sans-serif; text-anchor: middle; fill: #272727" x="145.093133" y="130.430638" transform="rotate(-0 145.093133 130.430638)">0.49</text>
   </g>
   <g id="text_14">
    <text style="font-size: 4.6px; font-family: 'Arial', 'DejaVu Sans', 'Liberation Sans', sans-serif; text-anchor: middle; fill: #4d4d4d" x="145.093133" y="121.053996" transform="rotate(-0 145.093133 121.053996)">UPR</text>
   </g>
   <g id="text_15">
    <text style="font-weight: 700; font-size: 5.5px; font-family: 'Arial', 'DejaVu Sans', 'Liberation Sans', sans-serif; text-anchor: middle; fill: #272727" x="213.919063" y="130.430638" transform="rotate(-0 213.919063 130.430638)">0.33</text>
   </g>
   <g id="text_16">
    <text style="font-size: 4.6px; font-family: 'Arial', 'DejaVu Sans', 'Liberation Sans', sans-serif; text-anchor: middle; fill: #4d4d4d" x="213.919063" y="121.110059" transform="rotate(-0 213.919063 121.110059)">Collagen ECM</text>
   </g>
   <g id="text_17">
    <text style="font-weight: 700; font-size: 5.5px; font-family: 'Arial', 'DejaVu Sans', 'Liberation Sans', sans-serif; text-anchor: middle; fill: #272727" x="282.744992" y="130.430638" transform="rotate(-0 282.744992 130.430638)">0.41</text>
   </g>
   <g id="text_18">
    <text style="font-size: 4.6px; font-family: 'Arial', 'DejaVu Sans', 'Liberation Sans', sans-serif; text-anchor: middle; fill: #4d4d4d" x="282.744992" y="121.110059" transform="rotate(-0 282.744992 121.110059)">TLS B/plasma</text>
   </g>
   <g id="text_19">
    <text style="font-weight: 700; font-size: 5.5px; font-family: 'Arial', 'DejaVu Sans', 'Liberation Sans', sans-serif; text-anchor: middle; fill: #272727" x="76.267204" y="97.637002" transform="rotate(-0 76.267204 97.637002)">0.59</text>
   </g>
   <g id="text_20">
    <text style="font-size: 4.6px; font-family: 'Arial', 'DejaVu Sans', 'Liberation Sans', sans-serif; text-anchor: middle; fill: #4d4d4d" x="76.267204" y="88.26036" transform="rotate(-0 76.267204 88.26036)">Luminal ER</text>
   </g>
   <g id="text_21">
    <text style="font-weight: 700; font-size: 5.5px; font-family: 'Arial', 'DejaVu Sans', 'Liberation Sans', sans-serif; text-anchor: middle; fill: #272727" x="145.093133" y="97.637002" transform="rotate(-0 145.093133 97.637002)">0.46</text>
   </g>
   <g id="text_22">
    <text style="font-size: 4.6px; font-family: 'Arial', 'DejaVu Sans', 'Liberation Sans', sans-serif; text-anchor: middle; fill: #4d4d4d" x="145.093133" y="88.26036" transform="rotate(-0 145.093133 88.26036)">OXPHOS</text>
   </g>
   <g id="text_23">
    <text style="font-weight: 700; font-size: 5.5px; font-family: 'Arial', 'DejaVu Sans', 'Liberation Sans', sans-serif; text-anchor: middle; fill: #272727" x="213.919063" y="97.637002" transform="rotate(-0 213.919063 97.637002)">0.38</text>
   </g>
   <g id="text_24">
    <text style="font-size: 4.6px; font-family: 'Arial', 'DejaVu Sans', 'Liberation Sans', sans-serif; text-anchor: middle; fill: #4d4d4d" x="213.919063" y="88.316422" transform="rotate(-0 213.919063 88.316422)">Collagen ECM</text>
   </g>
   <g id="text_25">
    <text style="font-weight: 700; font-size: 5.5px; font-family: 'Arial', 'DejaVu Sans', 'Liberation Sans', sans-serif; text-anchor: middle; fill: #272727" x="282.744992" y="97.637002" transform="rotate(-0 282.744992 97.637002)">0.39</text>
   </g>
   <g id="text_26">
    <text style="font-size: 4.6px; font-family: 'Arial', 'DejaVu Sans', 'Liberation Sans', sans-serif; text-anchor: middle; fill: #4d4d4d" x="282.744992" y="88.26036" transform="rotate(-0 282.744992 88.26036)">T-cell checkpoint</text>
   </g>
   <g id="text_27">
    <text style="font-weight: 700; font-size: 5.5px; font-family: 'Arial', 'DejaVu Sans', 'Liberation Sans', sans-serif; text-anchor: middle; fill: #272727" x="351.570921" y="97.637002" transform="rotate(-0 351.570921 97.637002)">0.30</text>
   </g>
   <g id="text_28">
    <text style="font-size: 4.6px; font-family: 'Arial', 'DejaVu Sans', 'Liberation Sans', sans-serif; text-anchor: middle; fill: #4d4d4d" x="351.570921" y="88.26036" transform="rotate(-0 351.570921 88.26036)">EMT</text>
   </g>
   <g id="text_29">
    <text style="font-weight: 700; font-size: 5.5px; font-family: 'Arial', 'DejaVu Sans', 'Liberation Sans', sans-serif; text-anchor: middle; fill: #272727" x="76.267204" y="64.843365" transform="rotate(-0 76.267204 64.843365)">0.52</text>
   </g>
   <g id="text_30">
    <text style="font-size: 4.6px; font-family: 'Arial', 'DejaVu Sans', 'Liberation Sans', sans-serif; text-anchor: middle; fill: #4d4d4d" x="76.267204" y="55.466724" transform="rotate(-0 76.267204 55.466724)">Epithelial</text>
   </g>
   <g id="text_31">
    <text style="font-weight: 700; font-size: 5.5px; font-family: 'Arial', 'DejaVu Sans', 'Liberation Sans', sans-serif; text-anchor: middle; fill: #272727" x="145.093133" y="64.843365" transform="rotate(-0 145.093133 64.843365)">0.49</text>
   </g>
   <g id="text_32">
    <text style="font-size: 4.6px; font-family: 'Arial', 'DejaVu Sans', 'Liberation Sans', sans-serif; text-anchor: middle; fill: #4d4d4d" x="145.093133" y="55.466724" transform="rotate(-0 145.093133 55.466724)">OXPHOS</text>
   </g>
   <g id="text_33">
    <text style="font-weight: 700; font-size: 5.5px; font-family: 'Arial', 'DejaVu Sans', 'Liberation Sans', sans-serif; text-anchor: middle; fill: #272727" x="213.919063" y="64.843365" transform="rotate(-0 213.919063 64.843365)">0.55</text>
   </g>
   <g id="text_34">
    <text style="font-size: 4.6px; font-family: 'Arial', 'DejaVu Sans', 'Liberation Sans', sans-serif; text-anchor: middle; fill: #4d4d4d" x="213.919063" y="55.522786" transform="rotate(-0 213.919063 55.522786)">myCAF</text>
   </g>
   <g id="text_35">
    <text style="font-weight: 700; font-size: 5.5px; font-family: 'Arial', 'DejaVu Sans', 'Liberation Sans', sans-serif; text-anchor: middle; fill: #272727" x="282.744992" y="64.843365" transform="rotate(-0 282.744992 64.843365)">0.55</text>
   </g>
   <g id="text_36">
    <text style="font-size: 4.6px; font-family: 'Arial', 'DejaVu Sans', 'Liberation Sans', sans-serif; text-anchor: middle; fill: #4d4d4d" x="282.744992" y="55.522786" transform="rotate(-0 282.744992 55.522786)">TLS adjacent</text>
   </g>
   <g id="text_37">
    <text style="font-weight: 700; font-size: 5.5px; font-family: 'Arial', 'DejaVu Sans', 'Liberation Sans', sans-serif; text-anchor: middle; fill: #272727" x="351.570921" y="64.843365" transform="rotate(-0 351.570921 64.843365)">0.55</text>
   </g>
   <g id="text_38">
    <text style="font-size: 4.6px; font-family: 'Arial', 'DejaVu Sans', 'Liberation Sans', sans-serif; text-anchor: middle; fill: #4d4d4d" x="351.570921" y="55.466724" transform="rotate(-0 351.570921 55.466724)">Invasive front</text>
   </g>
   <g id="text_39">
    <text style="font-weight: 700; font-size: 5.5px; font-family: 'Arial', 'DejaVu Sans', 'Liberation Sans', sans-serif; text-anchor: middle; fill: #272727" x="76.267204" y="32.049729" transform="rotate(-0 76.267204 32.049729)">0.53</text>
   </g>
   <g id="text_40">
    <text style="font-size: 4.6px; font-family: 'Arial', 'DejaVu Sans', 'Liberation Sans', sans-serif; text-anchor: middle; fill: #4d4d4d" x="76.267204" y="22.673087" transform="rotate(-0 76.267204 22.673087)">Epithelial</text>
   </g>
   <g id="text_41">
    <text style="font-weight: 700; font-size: 5.5px; font-family: 'Arial', 'DejaVu Sans', 'Liberation Sans', sans-serif; text-anchor: middle; fill: #272727" x="145.093133" y="32.049729" transform="rotate(-0 145.093133 32.049729)">0.55</text>
   </g>
   <g id="text_42">
    <text style="font-size: 4.6px; font-family: 'Arial', 'DejaVu Sans', 'Liberation Sans', sans-serif; text-anchor: middle; fill: #4d4d4d" x="145.093133" y="22.673087" transform="rotate(-0 145.093133 22.673087)">OXPHOS</text>
   </g>
   <g id="text_43">
    <text style="font-weight: 700; font-size: 5.5px; font-family: 'Arial', 'DejaVu Sans', 'Liberation Sans', sans-serif; text-anchor: middle; fill: #272727" x="213.919063" y="32.049729" transform="rotate(-0 213.919063 32.049729)">0.61</text>
   </g>
   <g id="text_44">
    <text style="font-size: 4.6px; font-family: 'Arial', 'DejaVu Sans', 'Liberation Sans', sans-serif; text-anchor: middle; fill: #4d4d4d" x="213.919063" y="22.72915" transform="rotate(-0 213.919063 22.72915)">Stromal cap</text>
   </g>
   <g id="text_45">
    <text style="font-weight: 700; font-size: 5.5px; font-family: 'Arial', 'DejaVu Sans', 'Liberation Sans', sans-serif; text-anchor: middle; fill: #272727" x="282.744992" y="32.049729" transform="rotate(-0 282.744992 32.049729)">0.63</text>
   </g>
   <g id="text_46">
    <text style="font-size: 4.6px; font-family: 'Arial', 'DejaVu Sans', 'Liberation Sans', sans-serif; text-anchor: middle; fill: #4d4d4d" x="282.744992" y="22.673087" transform="rotate(-0 282.744992 22.673087)">Immune exclusion</text>
   </g>
   <g id="text_47">
    <text style="font-weight: 700; font-size: 5.5px; font-family: 'Arial', 'DejaVu Sans', 'Liberation Sans', sans-serif; text-anchor: middle; fill: #272727" x="351.570921" y="32.049729" transform="rotate(-0 351.570921 32.049729)">0.53</text>
   </g>
   <g id="text_48">
    <text style="font-size: 4.6px; font-family: 'Arial', 'DejaVu Sans', 'Liberation Sans', sans-serif; text-anchor: middle; fill: #4d4d4d" x="351.570921" y="22.673087" transform="rotate(-0 351.570921 22.673087)">EMT</text>
   </g>
  </g>
 </g>
 <defs>
  <clipPath id="pd75e0815ba">
   <rect x="37.161563" y="7.2" width="353.515" height="144.292"/>
  </clipPath>
 </defs>
</svg>
