<?xml version="1.0" encoding="utf-8" standalone="no"?>
<!DOCTYPE svg PUBLIC "-//W3C//DTD SVG 1.1//EN"
  "http://www.w3.org/Graphics/SVG/1.1/DTD/svg11.dtd">
<svg xmlns:xlink="http://www.w3.org/1999/xlink" width="240.944882pt" height="184.251969pt" viewBox="0 0 240.944882 184.251969" xmlns="http://www.w3.org/2000/svg" version="1.1">
 <metadata>
  <rdf:RDF xmlns:dc="http://purl.org/dc/elements/1.1/" xmlns:cc="http://creativecommons.org/ns#" xmlns:rdf="http://www.w3.org/1999/02/22-rdf-syntax-ns#">
   <cc:Work>
    <dc:type rdf:resource="http://purl.org/dc/dcmitype/StillImage"/>
    <dc:date>2026-04-29T10:45:00.629498</dc:date>
    <dc:format>image/svg+xml</dc:format>
    <dc:creator>
     <cc:Agent>
      <dc:title>Matplotlib v3.10.7, https://matplotlib.org/</dc:title>
     </cc:Agent>
    </dc:creator>
   </cc:Work>
  </rdf:RDF>
 </metadata>
 <defs>
  <style type="text/css">*{stroke-linejoin: round; stroke-linecap: butt}</style>
 </defs>
 <g id="figure_1">
  <g id="patch_1">
   <path d="M 0 184.251969 
L 240.944882 184.251969 
L 240.944882 0 
L 0 0 
z
" style="fill: #ffffff"/>
  </g>
  <g id="axes_1">
   <g id="line2d_1">
    <path d="M 61.73634 87.986284 
L 162.762433 85.243183 
" clip-path="url(#p7c5f69e22e)" style="fill: none; stroke: #374151; stroke-opacity: 0.745; stroke-width: 1.48; stroke-linecap: square"/>
   </g>
   <g id="line2d_2">
    <path d="M 61.73634 87.986284 
L 181.557985 112.674196 
" clip-path="url(#p7c5f69e22e)" style="fill: none; stroke: #374151; stroke-opacity: 0.525; stroke-linecap: square"/>
   </g>
   <g id="line2d_3">
    <path d="M 49.98912 115.417297 
L 181.557985 112.674196 
" clip-path="url(#p7c5f69e22e)" style="fill: none; stroke: #374151; stroke-opacity: 0.635; stroke-width: 1.24; stroke-linecap: square"/>
   </g>
   <g id="line2d_4">
    <path d="M 78.182449 137.362108 
L 148.665769 134.619006 
" clip-path="url(#p7c5f69e22e)" style="fill: none; stroke: #374151; stroke-opacity: 0.69; stroke-width: 1.36; stroke-linecap: square"/>
   </g>
   <g id="line2d_5">
    <path d="M 49.98912 115.417297 
L 148.665769 134.619006 
" clip-path="url(#p7c5f69e22e)" style="fill: none; stroke: #374151; stroke-opacity: 0.36; stroke-width: 0.64; stroke-linecap: square"/>
   </g>
   <g id="patch_2">
    <path d="M 22.970514 175.765526 
L 217.974368 175.765526 
Q 223.847978 175.765526 223.847978 172.336649 
L 223.847978 151.763389 
Q 223.847978 148.334513 217.974368 148.334513 
L 22.970514 148.334513 
Q 17.096904 148.334513 17.096904 151.763389 
L 17.096904 172.336649 
Q 17.096904 175.765526 22.970514 175.765526 
z
" clip-path="url(#p7c5f69e22e)" style="fill: #f9fafb; stroke: #6b7280; stroke-width: 0.7; stroke-linejoin: miter"/>
   </g>
   <g id="text_1">
    <text style="font-weight: 700; font-size: 8px; font-family: 'Arial'; text-anchor: start; fill: #1f2933" x="3.00024" y="8.700144" transform="rotate(-0 3.00024 8.700144)">Fig. 1c</text>
   </g>
   <g id="text_2">
    <text style="font-weight: 700; font-size: 7px; font-family: 'Arial'; text-anchor: start" x="12.398016" y="55.069068" transform="rotate(-0 12.398016 55.069068)">Local contact support</text>
   </g>
   <g id="PathCollection_1">
    <defs>
     <path id="m1acf01b96a" d="M 0 4.472136 
C 1.186024 4.472136 2.323632 4.000923 3.162278 3.162278 
C 4.000923 2.323632 4.472136 1.186024 4.472136 0 
C 4.472136 -1.186024 4.000923 -2.323632 3.162278 -3.162278 
C 2.323632 -4.000923 1.186024 -4.472136 0 -4.472136 
C -1.186024 -4.472136 -2.323632 -4.000923 -3.162278 -3.162278 
C -4.000923 -2.323632 -4.472136 -1.186024 -4.472136 0 
C -4.472136 1.186024 -4.000923 2.323632 -3.162278 3.162278 
C -2.323632 4.000923 -1.186024 4.472136 0 4.472136 
z
" style="stroke: #ffffff; stroke-width: 0.4"/>
    </defs>
    <g clip-path="url(#p7c5f69e22e)">
     <use xlink:href="#m1acf01b96a" x="61.73634" y="87.986284" style="fill: #0f766e; stroke: #ffffff; stroke-width: 0.4"/>
    </g>
   </g>
   <g id="PathCollection_2">
    <g clip-path="url(#p7c5f69e22e)">
     <use xlink:href="#m1acf01b96a" x="49.98912" y="115.417297" style="fill: #0f766e; stroke: #ffffff; stroke-width: 0.4"/>
    </g>
   </g>
   <g id="PathCollection_3">
    <g clip-path="url(#p7c5f69e22e)">
     <use xlink:href="#m1acf01b96a" x="78.182449" y="137.362108" style="fill: #0f766e; stroke: #ffffff; stroke-width: 0.4"/>
    </g>
   </g>
   <g id="PathCollection_4">
    <defs>
     <path id="mb8f979a854" d="M 0 4.472136 
C 1.186024 4.472136 2.323632 4.000923 3.162278 3.162278 
C 4.000923 2.323632 4.472136 1.186024 4.472136 0 
C 4.472136 -1.186024 4.000923 -2.323632 3.162278 -3.162278 
C 2.323632 -4.000923 1.186024 -4.472136 0 -4.472136 
C -1.186024 -4.472136 -2.323632 -4.000923 -3.162278 -3.162278 
C -4.000923 -2.323632 -4.472136 -1.186024 -4.472136 0 
C -4.472136 1.186024 -4.000923 2.323632 -3.162278 3.162278 
C -2.323632 4.000923 -1.186024 4.472136 0 4.472136 
z
" style="stroke: #ffffff; stroke-width: 0.4"/>
    </defs>
    <g clip-path="url(#p7c5f69e22e)">
     <use xlink:href="#mb8f979a854" x="162.762433" y="85.243183" style="fill: #5b5f97; stroke: #ffffff; stroke-width: 0.4"/>
    </g>
   </g>
   <g id="PathCollection_5">
    <g clip-path="url(#p7c5f69e22e)">
     <use xlink:href="#mb8f979a854" x="181.557985" y="112.674196" style="fill: #5b5f97; stroke: #ffffff; stroke-width: 0.4"/>
    </g>
   </g>
   <g id="PathCollection_6">
    <g clip-path="url(#p7c5f69e22e)">
     <use xlink:href="#mb8f979a854" x="148.665769" y="134.619006" style="fill: #5b5f97; stroke: #ffffff; stroke-width: 0.4"/>
    </g>
   </g>
   <g id="text_3">
    <text style="font-size: 5.1px; font-family: 'Arial'; text-anchor: middle; fill: #1f2933" x="120.472441" y="163.369644" transform="rotate(-0 120.472441 163.369644)">local contact = f(edge strength, active-edge coverage, edge-count support)</text>
   </g>
  </g>
 </g>
 <defs>
  <clipPath id="p7c5f69e22e">
   <rect x="3.00024" y="44.096663" width="234.944402" height="137.155065"/>
  </clipPath>
 </defs>
</svg>
