<?xml version="1.0" encoding="utf-8" standalone="no"?>
<!DOCTYPE svg PUBLIC "-//W3C//DTD SVG 1.1//EN"
  "http://www.w3.org/Graphics/SVG/1.1/DTD/svg11.dtd">
<svg xmlns:xlink="http://www.w3.org/1999/xlink" width="510.23622pt" height="184.251969pt" viewBox="0 0 510.23622 184.251969" xmlns="http://www.w3.org/2000/svg" version="1.1">
 <metadata>
  <rdf:RDF xmlns:dc="http://purl.org/dc/elements/1.1/" xmlns:cc="http://creativecommons.org/ns#" xmlns:rdf="http://www.w3.org/1999/02/22-rdf-syntax-ns#">
   <cc:Work>
    <dc:type rdf:resource="http://purl.org/dc/dcmitype/StillImage"/>
    <dc:date>2026-04-29T10:45:02.786928</dc:date>
    <dc:format>image/svg+xml</dc:format>
    <dc:creator>
     <cc:Agent>
      <dc:title>Matplotlib v3.10.7, https://matplotlib.org/</dc:title>
     </cc:Agent>
    </dc:creator>
   </cc:Work>
  </rdf:RDF>
 </metadata>
 <defs>
  <style type="text/css">*{stroke-linejoin: round; stroke-linecap: butt}</style>
 </defs>
 <g id="figure_1">
  <g id="patch_1">
   <path d="M 0 184.251969 
L 510.23622 184.251969 
L 510.23622 0 
L 0 0 
z
" style="fill: #ffffff"/>
  </g>
  <g id="axes_1">
   <g id="patch_2">
    <path d="M 44.011959 157.168965 
L 507.23598 157.168965 
L 507.23598 38.390026 
L 44.011959 38.390026 
z
" style="fill: #ffffff"/>
   </g>
   <g id="PathCollection_1">
    <defs>
     <path id="mbde0e8f514" d="M 0 2.810636 
C 0.745389 2.810636 1.46035 2.51449 1.98742 1.98742 
C 2.51449 1.46035 2.810636 0.745389 2.810636 0 
C 2.810636 -0.745389 2.51449 -1.46035 1.98742 -1.98742 
C 1.46035 -2.51449 0.745389 -2.810636 0 -2.810636 
C -0.745389 -2.810636 -1.46035 -2.51449 -1.98742 -1.98742 
C -2.51449 -1.46035 -2.810636 -0.745389 -2.810636 0 
C -2.810636 0.745389 -2.51449 1.46035 -1.98742 1.98742 
C -1.46035 2.51449 -0.745389 2.810636 0 2.810636 
z
" style="stroke: #ffffff; stroke-opacity: 0.85; stroke-width: 0.25"/>
    </defs>
    <g clip-path="url(#p7077347132)">
     <use xlink:href="#mbde0e8f514" x="65.067596" y="46.874236" style="fill: #138a72; fill-opacity: 0.85; stroke: #ffffff; stroke-opacity: 0.85; stroke-width: 0.25"/>
    </g>
   </g>
   <g id="PathCollection_2">
    <defs>
     <path id="m76d7f2df58" d="M 0 2.676729 
C 0.709877 2.676729 1.390774 2.394692 1.892733 1.892733 
C 2.394692 1.390774 2.676729 0.709877 2.676729 0 
C 2.676729 -0.709877 2.394692 -1.390774 1.892733 -1.892733 
C 1.390774 -2.394692 0.709877 -2.676729 0 -2.676729 
C -0.709877 -2.676729 -1.390774 -2.394692 -1.892733 -1.892733 
C -2.394692 -1.390774 -2.676729 -0.709877 -2.676729 0 
C -2.676729 0.709877 -2.394692 1.390774 -1.892733 1.892733 
C -1.390774 2.394692 -0.709877 2.676729 0 2.676729 
z
" style="stroke: #ffffff; stroke-opacity: 0.85; stroke-width: 0.25"/>
    </defs>
    <g clip-path="url(#p7077347132)">
     <use xlink:href="#m76d7f2df58" x="205.438512" y="46.874236" style="fill: #138a72; fill-opacity: 0.85; stroke: #ffffff; stroke-opacity: 0.85; stroke-width: 0.25"/>
    </g>
   </g>
   <g id="PathCollection_3">
    <defs>
     <path id="m94e9fc28f4" d="M 0 3.981185 
C 1.055823 3.981185 2.068544 3.561702 2.815123 2.815123 
C 3.561702 2.068544 3.981185 1.055823 3.981185 0 
C 3.981185 -1.055823 3.561702 -2.068544 2.815123 -2.815123 
C 2.068544 -3.561702 1.055823 -3.981185 0 -3.981185 
C -1.055823 -3.981185 -2.068544 -3.561702 -2.815123 -2.815123 
C -3.561702 -2.068544 -3.981185 -1.055823 -3.981185 0 
C -3.981185 1.055823 -3.561702 2.068544 -2.815123 2.815123 
C -2.068544 3.561702 -1.055823 3.981185 0 3.981185 
z
" style="stroke: #ffffff; stroke-opacity: 0.85; stroke-width: 0.25"/>
    </defs>
    <g clip-path="url(#p7077347132)">
     <use xlink:href="#m94e9fc28f4" x="345.809427" y="46.874236" style="fill: #138a72; fill-opacity: 0.85; stroke: #ffffff; stroke-opacity: 0.85; stroke-width: 0.25"/>
    </g>
   </g>
   <g id="PathCollection_4">
    <defs>
     <path id="m616d869180" d="M 0 2.373048 
C 0.62934 2.373048 1.232988 2.123009 1.677999 1.677999 
C 2.123009 1.232988 2.373048 0.62934 2.373048 0 
C 2.373048 -0.62934 2.123009 -1.232988 1.677999 -1.677999 
C 1.232988 -2.123009 0.62934 -2.373048 0 -2.373048 
C -0.62934 -2.373048 -1.232988 -2.123009 -1.677999 -1.677999 
C -2.123009 -1.232988 -2.373048 -0.62934 -2.373048 0 
C -2.373048 0.62934 -2.123009 1.232988 -1.677999 1.677999 
C -1.232988 2.123009 -0.62934 2.373048 0 2.373048 
z
" style="stroke: #ffffff; stroke-opacity: 0.85; stroke-width: 0.25"/>
    </defs>
    <g clip-path="url(#p7077347132)">
     <use xlink:href="#m616d869180" x="486.180343" y="46.874236" style="fill: #138a72; fill-opacity: 0.85; stroke: #ffffff; stroke-opacity: 0.85; stroke-width: 0.25"/>
    </g>
   </g>
   <g id="PathCollection_5">
    <g clip-path="url(#p7077347132)">
     <use xlink:href="#mbde0e8f514" x="65.067596" y="63.842656" style="fill: #138a72; fill-opacity: 0.85; stroke: #ffffff; stroke-opacity: 0.85; stroke-width: 0.25"/>
    </g>
   </g>
   <g id="PathCollection_6">
    <g clip-path="url(#p7077347132)">
     <use xlink:href="#m76d7f2df58" x="205.438512" y="63.842656" style="fill: #138a72; fill-opacity: 0.85; stroke: #ffffff; stroke-opacity: 0.85; stroke-width: 0.25"/>
    </g>
   </g>
   <g id="PathCollection_7">
    <defs>
     <path id="mf404db9201" d="M 0 4.996934 
C 1.325202 4.996934 2.596306 4.470426 3.533366 3.533366 
C 4.470426 2.596306 4.996934 1.325202 4.996934 0 
C 4.996934 -1.325202 4.470426 -2.596306 3.533366 -3.533366 
C 2.596306 -4.470426 1.325202 -4.996934 0 -4.996934 
C -1.325202 -4.996934 -2.596306 -4.470426 -3.533366 -3.533366 
C -4.470426 -2.596306 -4.996934 -1.325202 -4.996934 0 
C -4.996934 1.325202 -4.470426 2.596306 -3.533366 3.533366 
C -2.596306 4.470426 -1.325202 4.996934 0 4.996934 
z
" style="stroke: #ffffff; stroke-opacity: 0.85; stroke-width: 0.25"/>
    </defs>
    <g clip-path="url(#p7077347132)">
     <use xlink:href="#mf404db9201" x="345.809427" y="63.842656" style="fill: #138a72; fill-opacity: 0.85; stroke: #ffffff; stroke-opacity: 0.85; stroke-width: 0.25"/>
    </g>
   </g>
   <g id="PathCollection_8">
    <defs>
     <path id="m0b14c00674" d="M 0 2.360352 
C 0.625973 2.360352 1.226391 2.11165 1.669021 1.669021 
C 2.11165 1.226391 2.360352 0.625973 2.360352 0 
C 2.360352 -0.625973 2.11165 -1.226391 1.669021 -1.669021 
C 1.226391 -2.11165 0.625973 -2.360352 0 -2.360352 
C -0.625973 -2.360352 -1.226391 -2.11165 -1.669021 -1.669021 
C -2.11165 -1.226391 -2.360352 -0.625973 -2.360352 0 
C -2.360352 0.625973 -2.11165 1.226391 -1.669021 1.669021 
C -1.226391 2.11165 -0.625973 2.360352 0 2.360352 
z
" style="stroke: #ffffff; stroke-opacity: 0.85; stroke-width: 0.25"/>
    </defs>
    <g clip-path="url(#p7077347132)">
     <use xlink:href="#m0b14c00674" x="486.180343" y="63.842656" style="fill: #138a72; fill-opacity: 0.85; stroke: #ffffff; stroke-opacity: 0.85; stroke-width: 0.25"/>
    </g>
   </g>
   <g id="PathCollection_9">
    <g clip-path="url(#p7077347132)">
     <use xlink:href="#mbde0e8f514" x="65.067596" y="80.811076" style="fill: #138a72; fill-opacity: 0.85; stroke: #ffffff; stroke-opacity: 0.85; stroke-width: 0.25"/>
    </g>
   </g>
   <g id="PathCollection_10">
    <g clip-path="url(#p7077347132)">
     <use xlink:href="#m76d7f2df58" x="205.438512" y="80.811076" style="fill: #138a72; fill-opacity: 0.85; stroke: #ffffff; stroke-opacity: 0.85; stroke-width: 0.25"/>
    </g>
   </g>
   <g id="PathCollection_11">
    <defs>
     <path id="m470e6dc3cd" d="M 0 3.859606 
C 1.023579 3.859606 2.005373 3.452933 2.729153 2.729153 
C 3.452933 2.005373 3.859606 1.023579 3.859606 0 
C 3.859606 -1.023579 3.452933 -2.005373 2.729153 -2.729153 
C 2.005373 -3.452933 1.023579 -3.859606 0 -3.859606 
C -1.023579 -3.859606 -2.005373 -3.452933 -2.729153 -2.729153 
C -3.452933 -2.005373 -3.859606 -1.023579 -3.859606 0 
C -3.859606 1.023579 -3.452933 2.005373 -2.729153 2.729153 
C -2.005373 3.452933 -1.023579 3.859606 0 3.859606 
z
" style="stroke: #ffffff; stroke-opacity: 0.85; stroke-width: 0.25"/>
    </defs>
    <g clip-path="url(#p7077347132)">
     <use xlink:href="#m470e6dc3cd" x="345.809427" y="80.811076" style="fill: #138a72; fill-opacity: 0.85; stroke: #ffffff; stroke-opacity: 0.85; stroke-width: 0.25"/>
    </g>
   </g>
   <g id="PathCollection_12">
    <defs>
     <path id="m626c77561c" d="M 0 2.580581 
C 0.684378 2.580581 1.340818 2.308674 1.824746 1.824746 
C 2.308674 1.340818 2.580581 0.684378 2.580581 0 
C 2.580581 -0.684378 2.308674 -1.340818 1.824746 -1.824746 
C 1.340818 -2.308674 0.684378 -2.580581 0 -2.580581 
C -0.684378 -2.580581 -1.340818 -2.308674 -1.824746 -1.824746 
C -2.308674 -1.340818 -2.580581 -0.684378 -2.580581 0 
C -2.580581 0.684378 -2.308674 1.340818 -1.824746 1.824746 
C -1.340818 2.308674 -0.684378 2.580581 0 2.580581 
z
" style="stroke: #ffffff; stroke-opacity: 0.85; stroke-width: 0.25"/>
    </defs>
    <g clip-path="url(#p7077347132)">
     <use xlink:href="#m626c77561c" x="486.180343" y="80.811076" style="fill: #138a72; fill-opacity: 0.85; stroke: #ffffff; stroke-opacity: 0.85; stroke-width: 0.25"/>
    </g>
   </g>
   <g id="PathCollection_13">
    <g clip-path="url(#p7077347132)">
     <use xlink:href="#mbde0e8f514" x="65.067596" y="97.779495" style="fill: #138a72; fill-opacity: 0.85; stroke: #ffffff; stroke-opacity: 0.85; stroke-width: 0.25"/>
    </g>
   </g>
   <g id="PathCollection_14">
    <defs>
     <path id="m2bb4160e43" d="M 0 2.523687 
C 0.66929 2.523687 1.311257 2.257776 1.784516 1.784516 
C 2.257776 1.311257 2.523687 0.66929 2.523687 0 
C 2.523687 -0.66929 2.257776 -1.311257 1.784516 -1.784516 
C 1.311257 -2.257776 0.66929 -2.523687 0 -2.523687 
C -0.66929 -2.523687 -1.311257 -2.257776 -1.784516 -1.784516 
C -2.257776 -1.311257 -2.523687 -0.66929 -2.523687 0 
C -2.523687 0.66929 -2.257776 1.311257 -1.784516 1.784516 
C -1.311257 2.257776 -0.66929 2.523687 0 2.523687 
z
" style="stroke: #ffffff; stroke-opacity: 0.85; stroke-width: 0.25"/>
    </defs>
    <g clip-path="url(#p7077347132)">
     <use xlink:href="#m2bb4160e43" x="205.438512" y="97.779495" style="fill: #138a72; fill-opacity: 0.85; stroke: #ffffff; stroke-opacity: 0.85; stroke-width: 0.25"/>
    </g>
   </g>
   <g id="PathCollection_15">
    <defs>
     <path id="m8310e035e7" d="M 0 4.71396 
C 1.250157 4.71396 2.449279 4.217267 3.333273 3.333273 
C 4.217267 2.449279 4.71396 1.250157 4.71396 0 
C 4.71396 -1.250157 4.217267 -2.449279 3.333273 -3.333273 
C 2.449279 -4.217267 1.250157 -4.71396 0 -4.71396 
C -1.250157 -4.71396 -2.449279 -4.217267 -3.333273 -3.333273 
C -4.217267 -2.449279 -4.71396 -1.250157 -4.71396 0 
C -4.71396 1.250157 -4.217267 2.449279 -3.333273 3.333273 
C -2.449279 4.217267 -1.250157 4.71396 0 4.71396 
z
" style="stroke: #ffffff; stroke-opacity: 0.85; stroke-width: 0.25"/>
    </defs>
    <g clip-path="url(#p7077347132)">
     <use xlink:href="#m8310e035e7" x="345.809427" y="97.779495" style="fill: #138a72; fill-opacity: 0.85; stroke: #ffffff; stroke-opacity: 0.85; stroke-width: 0.25"/>
    </g>
   </g>
   <g id="PathCollection_16">
    <g clip-path="url(#p7077347132)">
     <use xlink:href="#m626c77561c" x="486.180343" y="97.779495" style="fill: #138a72; fill-opacity: 0.85; stroke: #ffffff; stroke-opacity: 0.85; stroke-width: 0.25"/>
    </g>
   </g>
   <g id="PathCollection_17">
    <g clip-path="url(#p7077347132)">
     <use xlink:href="#mbde0e8f514" x="65.067596" y="114.747915" style="fill: #138a72; fill-opacity: 0.85; stroke: #ffffff; stroke-opacity: 0.85; stroke-width: 0.25"/>
    </g>
   </g>
   <g id="PathCollection_18">
    <g clip-path="url(#p7077347132)">
     <use xlink:href="#m76d7f2df58" x="205.438512" y="114.747915" style="fill: #138a72; fill-opacity: 0.85; stroke: #ffffff; stroke-opacity: 0.85; stroke-width: 0.25"/>
    </g>
   </g>
   <g id="PathCollection_19">
    <defs>
     <path id="m8c1720c891" d="M 0 4.370799 
C 1.159149 4.370799 2.270979 3.910264 3.090622 3.090622 
C 3.910264 2.270979 4.370799 1.159149 4.370799 0 
C 4.370799 -1.159149 3.910264 -2.270979 3.090622 -3.090622 
C 2.270979 -3.910264 1.159149 -4.370799 0 -4.370799 
C -1.159149 -4.370799 -2.270979 -3.910264 -3.090622 -3.090622 
C -3.910264 -2.270979 -4.370799 -1.159149 -4.370799 0 
C -4.370799 1.159149 -3.910264 2.270979 -3.090622 3.090622 
C -2.270979 3.910264 -1.159149 4.370799 0 4.370799 
z
" style="stroke: #ffffff; stroke-opacity: 0.85; stroke-width: 0.25"/>
    </defs>
    <g clip-path="url(#p7077347132)">
     <use xlink:href="#m8c1720c891" x="345.809427" y="114.747915" style="fill: #138a72; fill-opacity: 0.85; stroke: #ffffff; stroke-opacity: 0.85; stroke-width: 0.25"/>
    </g>
   </g>
   <g id="PathCollection_20">
    <defs>
     <path id="m2c42704f14" d="M 0 2.384767 
C 0.632448 2.384767 1.239077 2.133493 1.686285 1.686285 
C 2.133493 1.239077 2.384767 0.632448 2.384767 0 
C 2.384767 -0.632448 2.133493 -1.239077 1.686285 -1.686285 
C 1.239077 -2.133493 0.632448 -2.384767 0 -2.384767 
C -0.632448 -2.384767 -1.239077 -2.133493 -1.686285 -1.686285 
C -2.133493 -1.239077 -2.384767 -0.632448 -2.384767 0 
C -2.384767 0.632448 -2.133493 1.239077 -1.686285 1.686285 
C -1.239077 2.133493 -0.632448 2.384767 0 2.384767 
z
" style="stroke: #ffffff; stroke-opacity: 0.85; stroke-width: 0.25"/>
    </defs>
    <g clip-path="url(#p7077347132)">
     <use xlink:href="#m2c42704f14" x="486.180343" y="114.747915" style="fill: #138a72; fill-opacity: 0.85; stroke: #ffffff; stroke-opacity: 0.85; stroke-width: 0.25"/>
    </g>
   </g>
   <g id="PathCollection_21">
    <g clip-path="url(#p7077347132)">
     <use xlink:href="#mbde0e8f514" x="65.067596" y="131.716335" style="fill: #138a72; fill-opacity: 0.85; stroke: #ffffff; stroke-opacity: 0.85; stroke-width: 0.25"/>
    </g>
   </g>
   <g id="PathCollection_22">
    <defs>
     <path id="m4aecb1cabb" d="M 0 1.723675 
C 0.457124 1.723675 0.895587 1.542058 1.218823 1.218823 
C 1.542058 0.895587 1.723675 0.457124 1.723675 0 
C 1.723675 -0.457124 1.542058 -0.895587 1.218823 -1.218823 
C 0.895587 -1.542058 0.457124 -1.723675 0 -1.723675 
C -0.457124 -1.723675 -0.895587 -1.542058 -1.218823 -1.218823 
C -1.542058 -0.895587 -1.723675 -0.457124 -1.723675 0 
C -1.723675 0.457124 -1.542058 0.895587 -1.218823 1.218823 
C -0.895587 1.542058 -0.457124 1.723675 0 1.723675 
z
" style="stroke: #ffffff; stroke-opacity: 0.85; stroke-width: 0.25"/>
    </defs>
    <g clip-path="url(#p7077347132)">
     <use xlink:href="#m4aecb1cabb" x="205.438512" y="131.716335" style="fill: #138a72; fill-opacity: 0.85; stroke: #ffffff; stroke-opacity: 0.85; stroke-width: 0.25"/>
    </g>
   </g>
   <g id="PathCollection_23">
    <defs>
     <path id="m865eac7908" d="M 0 4.993792 
C 1.324369 4.993792 2.594674 4.467614 3.531144 3.531144 
C 4.467614 2.594674 4.993792 1.324369 4.993792 0 
C 4.993792 -1.324369 4.467614 -2.594674 3.531144 -3.531144 
C 2.594674 -4.467614 1.324369 -4.993792 0 -4.993792 
C -1.324369 -4.993792 -2.594674 -4.467614 -3.531144 -3.531144 
C -4.467614 -2.594674 -4.993792 -1.324369 -4.993792 0 
C -4.993792 1.324369 -4.467614 2.594674 -3.531144 3.531144 
C -2.594674 4.467614 -1.324369 4.993792 0 4.993792 
z
" style="stroke: #ffffff; stroke-opacity: 0.85; stroke-width: 0.25"/>
    </defs>
    <g clip-path="url(#p7077347132)">
     <use xlink:href="#m865eac7908" x="345.809427" y="131.716335" style="fill: #138a72; fill-opacity: 0.85; stroke: #ffffff; stroke-opacity: 0.85; stroke-width: 0.25"/>
    </g>
   </g>
   <g id="PathCollection_24">
    <g clip-path="url(#p7077347132)">
     <use xlink:href="#m2c42704f14" x="486.180343" y="131.716335" style="fill: #138a72; fill-opacity: 0.85; stroke: #ffffff; stroke-opacity: 0.85; stroke-width: 0.25"/>
    </g>
   </g>
   <g id="PathCollection_25">
    <g clip-path="url(#p7077347132)">
     <use xlink:href="#mbde0e8f514" x="65.067596" y="148.684755" style="fill: #138a72; fill-opacity: 0.85; stroke: #ffffff; stroke-opacity: 0.85; stroke-width: 0.25"/>
    </g>
   </g>
   <g id="PathCollection_26">
    <g clip-path="url(#p7077347132)">
     <use xlink:href="#m76d7f2df58" x="205.438512" y="148.684755" style="fill: #138a72; fill-opacity: 0.85; stroke: #ffffff; stroke-opacity: 0.85; stroke-width: 0.25"/>
    </g>
   </g>
   <g id="PathCollection_27">
    <defs>
     <path id="m08a9d3d2bd" d="M 0 1.767844 
C 0.468838 1.767844 0.918536 1.581573 1.250055 1.250055 
C 1.581573 0.918536 1.767844 0.468838 1.767844 0 
C 1.767844 -0.468838 1.581573 -0.918536 1.250055 -1.250055 
C 0.918536 -1.581573 0.468838 -1.767844 0 -1.767844 
C -0.468838 -1.767844 -0.918536 -1.581573 -1.250055 -1.250055 
C -1.581573 -0.918536 -1.767844 -0.468838 -1.767844 0 
C -1.767844 0.468838 -1.581573 0.918536 -1.250055 1.250055 
C -0.918536 1.581573 -0.468838 1.767844 0 1.767844 
z
" style="stroke: #ffffff; stroke-opacity: 0.85; stroke-width: 0.25"/>
    </defs>
    <g clip-path="url(#p7077347132)">
     <use xlink:href="#m08a9d3d2bd" x="345.809427" y="148.684755" style="fill: #138a72; fill-opacity: 0.85; stroke: #ffffff; stroke-opacity: 0.85; stroke-width: 0.25"/>
    </g>
   </g>
   <g id="PathCollection_28">
    <defs>
     <path id="mf846314e2a" d="M 0 1.712527 
C 0.454168 1.712527 0.889795 1.532085 1.21094 1.21094 
C 1.532085 0.889795 1.712527 0.454168 1.712527 0 
C 1.712527 -0.454168 1.532085 -0.889795 1.21094 -1.21094 
C 0.889795 -1.532085 0.454168 -1.712527 0 -1.712527 
C -0.454168 -1.712527 -0.889795 -1.532085 -1.21094 -1.21094 
C -1.532085 -0.889795 -1.712527 -0.454168 -1.712527 0 
C -1.712527 0.454168 -1.532085 0.889795 -1.21094 1.21094 
C -0.889795 1.532085 -0.454168 1.712527 0 1.712527 
z
" style="stroke: #ffffff; stroke-opacity: 0.85; stroke-width: 0.25"/>
    </defs>
    <g clip-path="url(#p7077347132)">
     <use xlink:href="#mf846314e2a" x="486.180343" y="148.684755" style="fill: #138a72; fill-opacity: 0.85; stroke: #ffffff; stroke-opacity: 0.85; stroke-width: 0.25"/>
    </g>
   </g>
   <g id="matplotlib.axis_1">
    <g id="xtick_1">
     <g id="line2d_1">
      <path d="M 65.067596 157.168965 
L 65.067596 38.390026 
" clip-path="url(#p7077347132)" style="fill: none; stroke: #e5e7eb; stroke-width: 0.35; stroke-linecap: square"/>
     </g>
     <g id="line2d_2"/>
     <g id="text_1">
      <text style="font-size: 5px; font-family: 'Arial'" transform="translate(31.660848 179.294539) rotate(-25)">label perm. FDR</text>
     </g>
    </g>
    <g id="xtick_2">
     <g id="line2d_3">
      <path d="M 205.438512 157.168965 
L 205.438512 38.390026 
" clip-path="url(#p7077347132)" style="fill: none; stroke: #e5e7eb; stroke-width: 0.35; stroke-linecap: square"/>
     </g>
     <g id="line2d_4"/>
     <g id="text_2">
      <text style="font-size: 5px; font-family: 'Arial'" transform="translate(173.035783 178.826358) rotate(-25)">spatial null FDR</text>
     </g>
    </g>
    <g id="xtick_3">
     <g id="line2d_5">
      <path d="M 345.809427 157.168965 
L 345.809427 38.390026 
" clip-path="url(#p7077347132)" style="fill: none; stroke: #e5e7eb; stroke-width: 0.35; stroke-linecap: square"/>
     </g>
     <g id="line2d_6"/>
     <g id="text_3">
      <text style="font-size: 5px; font-family: 'Arial'" transform="translate(313.12208 178.94753) rotate(-25)">matched gene z</text>
     </g>
    </g>
    <g id="xtick_4">
     <g id="line2d_7">
      <path d="M 486.180343 157.168965 
L 486.180343 38.390026 
" clip-path="url(#p7077347132)" style="fill: none; stroke: #e5e7eb; stroke-width: 0.35; stroke-linecap: square"/>
     </g>
     <g id="line2d_8"/>
     <g id="text_4">
      <text style="font-size: 5px; font-family: 'Arial'" transform="translate(450.507826 180.351085) rotate(-25)">downstream FDR</text>
     </g>
    </g>
   </g>
   <g id="matplotlib.axis_2">
    <g id="ytick_1">
     <g id="line2d_9">
      <path d="M 44.011959 46.874236 
L 507.23598 46.874236 
" clip-path="url(#p7077347132)" style="fill: none; stroke: #e5e7eb; stroke-width: 0.35; stroke-linecap: square"/>
     </g>
     <g id="line2d_10"/>
     <g id="text_5">
      <text style="font-size: 5px; font-family: 'Arial'; text-anchor: end" x="40.511959" y="48.663689" transform="rotate(-0 40.511959 48.663689)">VWF-SELP</text>
     </g>
    </g>
    <g id="ytick_2">
     <g id="line2d_11">
      <path d="M 44.011959 63.842656 
L 507.23598 63.842656 
" clip-path="url(#p7077347132)" style="fill: none; stroke: #e5e7eb; stroke-width: 0.35; stroke-linecap: square"/>
     </g>
     <g id="line2d_12"/>
     <g id="text_6">
      <text style="font-size: 5px; font-family: 'Arial'; text-anchor: end" x="40.511959" y="65.632109" transform="rotate(-0 40.511959 65.632109)">VWF-LRP1</text>
     </g>
    </g>
    <g id="ytick_3">
     <g id="line2d_13">
      <path d="M 44.011959 80.811076 
L 507.23598 80.811076 
" clip-path="url(#p7077347132)" style="fill: none; stroke: #e5e7eb; stroke-width: 0.35; stroke-linecap: square"/>
     </g>
     <g id="line2d_14"/>
     <g id="text_7">
      <text style="font-size: 5px; font-family: 'Arial'; text-anchor: end" x="40.511959" y="82.600529" transform="rotate(-0 40.511959 82.600529)">MMRN2-CD93</text>
     </g>
    </g>
    <g id="ytick_4">
     <g id="line2d_15">
      <path d="M 44.011959 97.779495 
L 507.23598 97.779495 
" clip-path="url(#p7077347132)" style="fill: none; stroke: #e5e7eb; stroke-width: 0.35; stroke-linecap: square"/>
     </g>
     <g id="line2d_16"/>
     <g id="text_8">
      <text style="font-size: 5px; font-family: 'Arial'; text-anchor: end" x="40.511959" y="99.568949" transform="rotate(-0 40.511959 99.568949)">CD48-CD2</text>
     </g>
    </g>
    <g id="ytick_5">
     <g id="line2d_17">
      <path d="M 44.011959 114.747915 
L 507.23598 114.747915 
" clip-path="url(#p7077347132)" style="fill: none; stroke: #e5e7eb; stroke-width: 0.35; stroke-linecap: square"/>
     </g>
     <g id="line2d_18"/>
     <g id="text_9">
      <text style="font-size: 5px; font-family: 'Arial'; text-anchor: end" x="40.511959" y="116.537368" transform="rotate(-0 40.511959 116.537368)">DLL4-NOTCH3</text>
     </g>
    </g>
    <g id="ytick_6">
     <g id="line2d_19">
      <path d="M 44.011959 131.716335 
L 507.23598 131.716335 
" clip-path="url(#p7077347132)" style="fill: none; stroke: #e5e7eb; stroke-width: 0.35; stroke-linecap: square"/>
     </g>
     <g id="line2d_20"/>
     <g id="text_10">
      <text style="font-size: 5px; font-family: 'Arial'; text-anchor: end" x="40.511959" y="133.505788" transform="rotate(-0 40.511959 133.505788)">CXCL12-CXCR4</text>
     </g>
    </g>
    <g id="ytick_7">
     <g id="line2d_21">
      <path d="M 44.011959 148.684755 
L 507.23598 148.684755 
" clip-path="url(#p7077347132)" style="fill: none; stroke: #e5e7eb; stroke-width: 0.35; stroke-linecap: square"/>
     </g>
     <g id="line2d_22"/>
     <g id="text_11">
      <text style="font-size: 5px; font-family: 'Arial'; text-anchor: end" x="40.511959" y="150.474208" transform="rotate(-0 40.511959 150.474208)">JAG1-NOTCH2</text>
     </g>
    </g>
   </g>
   <g id="patch_3">
    <path d="M 44.011959 157.168965 
L 44.011959 38.390026 
" style="fill: none; stroke: #000000; stroke-width: 0.45; stroke-linejoin: miter; stroke-linecap: square"/>
   </g>
   <g id="patch_4">
    <path d="M 507.23598 157.168965 
L 507.23598 38.390026 
" style="fill: none; stroke: #000000; stroke-width: 0.45; stroke-linejoin: miter; stroke-linecap: square"/>
   </g>
   <g id="patch_5">
    <path d="M 44.011959 157.168965 
L 507.23598 157.168965 
" style="fill: none; stroke: #000000; stroke-width: 0.45; stroke-linejoin: miter; stroke-linecap: square"/>
   </g>
   <g id="patch_6">
    <path d="M 44.011959 38.390026 
L 507.23598 38.390026 
" style="fill: none; stroke: #000000; stroke-width: 0.45; stroke-linejoin: miter; stroke-linecap: square"/>
   </g>
   <g id="text_12">
    <text style="font-weight: 700; font-size: 8px; font-family: 'Arial'; text-anchor: start; fill: #1f2933" x="44.011959" y="8.580095" transform="rotate(-0 44.011959 8.580095)">Fig. 1f</text>
   </g>
   <g id="text_13">
    <text style="font-size: 7px; font-family: 'Arial'; text-anchor: start" x="44.011959" y="32.390026" transform="rotate(-0 44.011959 32.390026)">Quantitative false-positive controls</text>
   </g>
  </g>
 </g>
 <defs>
  <clipPath id="p7077347132">
   <rect x="44.011959" y="38.390026" width="463.224022" height="118.778939"/>
  </clipPath>
 </defs>
</svg>
