<?xml version="1.0" encoding="utf-8" standalone="no"?>
<!DOCTYPE svg PUBLIC "-//W3C//DTD SVG 1.1//EN"
  "http://www.w3.org/Graphics/SVG/1.1/DTD/svg11.dtd">
<svg xmlns:xlink="http://www.w3.org/1999/xlink" width="510.23622pt" height="184.251969pt" viewBox="0 0 510.23622 184.251969" xmlns="http://www.w3.org/2000/svg" version="1.1">
 <metadata>
  <rdf:RDF xmlns:dc="http://purl.org/dc/elements/1.1/" xmlns:cc="http://creativecommons.org/ns#" xmlns:rdf="http://www.w3.org/1999/02/22-rdf-syntax-ns#">
   <cc:Work>
    <dc:type rdf:resource="http://purl.org/dc/dcmitype/StillImage"/>
    <dc:date>2026-04-29T10:45:05.045158</dc:date>
    <dc:format>image/svg+xml</dc:format>
    <dc:creator>
     <cc:Agent>
      <dc:title>Matplotlib v3.10.7, https://matplotlib.org/</dc:title>
     </cc:Agent>
    </dc:creator>
   </cc:Work>
  </rdf:RDF>
 </metadata>
 <defs>
  <style type="text/css">*{stroke-linejoin: round; stroke-linecap: butt}</style>
 </defs>
 <g id="figure_1">
  <g id="patch_1">
   <path d="M 0 184.251969 
L 510.23622 184.251969 
L 510.23622 0 
L 0 0 
z
" style="fill: #ffffff"/>
  </g>
  <g id="axes_1">
   <g id="patch_2">
    <path d="M 25.837428 161.61876 
L 507.23598 161.61876 
L 507.23598 39.444132 
L 25.837428 39.444132 
z
" style="fill: #ffffff"/>
   </g>
   <g id="FillBetweenPolyCollection_1">
    <path d="M 47.71918 19595.154435 
L 47.71918 48.126863 
L 49.573566 48.126863 
L 49.573566 44.997524 
L 53.282337 44.997524 
L 53.282337 50.40026 
L 56.991109 50.40026 
L 56.991109 60.686704 
L 60.69988 60.686704 
L 60.69988 73.176808 
L 64.408652 73.176808 
L 64.408652 86.515488 
L 68.117424 86.515488 
L 68.117424 98.207835 
L 71.826195 98.207835 
L 71.826195 104.267155 
L 75.534967 104.267155 
L 75.534967 100.735167 
L 79.243738 100.735167 
L 79.243738 98.06639 
L 82.95251 98.06639 
L 82.95251 95.442715 
L 86.661282 95.442715 
L 86.661282 93.891732 
L 90.370053 93.891732 
L 90.370053 91.866855 
L 94.078825 91.866855 
L 94.078825 91.480432 
L 97.787596 91.480432 
L 97.787596 90.39239 
L 101.496368 90.39239 
L 101.496368 90.012509 
L 105.20514 90.012509 
L 105.20514 89.485615 
L 108.913911 89.485615 
L 108.913911 89.42555 
L 112.622683 89.42555 
L 112.622683 89.331572 
L 116.331454 89.331572 
L 116.331454 89.250962 
L 120.040226 89.250962 
L 120.040226 89.369038 
L 123.748998 89.369038 
L 123.748998 89.613483 
L 127.457769 89.613483 
L 127.457769 89.610262 
L 131.166541 89.610262 
L 131.166541 90.374747 
L 134.875312 90.374747 
L 134.875312 90.694446 
L 138.584084 90.694446 
L 138.584084 91.460364 
L 142.292856 91.460364 
L 142.292856 91.938669 
L 146.001627 91.938669 
L 146.001627 91.972676 
L 149.710399 91.972676 
L 149.710399 92.932497 
L 153.41917 92.932497 
L 153.41917 93.408591 
L 157.127942 93.408591 
L 157.127942 93.833124 
L 160.836714 93.833124 
L 160.836714 94.308179 
L 164.545485 94.308179 
L 164.545485 95.010645 
L 168.254257 95.010645 
L 168.254257 95.4749 
L 171.963028 95.4749 
L 171.963028 95.959345 
L 175.6718 95.959345 
L 175.6718 96.516958 
L 179.380572 96.516958 
L 179.380572 97.22438 
L 183.089343 97.22438 
L 183.089343 97.3041 
L 186.798115 97.3041 
L 186.798115 98.342627 
L 190.506886 98.342627 
L 190.506886 98.722432 
L 194.215658 98.722432 
L 194.215658 99.67426 
L 197.924429 99.67426 
L 197.924429 100.301533 
L 201.633201 100.301533 
L 201.633201 100.92981 
L 205.341973 100.92981 
L 205.341973 101.307323 
L 209.050744 101.307323 
L 209.050744 102.538221 
L 212.759516 102.538221 
L 212.759516 102.245565 
L 216.468287 102.245565 
L 216.468287 103.236329 
L 220.177059 103.236329 
L 220.177059 104.377513 
L 223.885831 104.377513 
L 223.885831 105.337229 
L 227.594602 105.337229 
L 227.594602 106.119079 
L 231.303374 106.119079 
L 231.303374 106.683677 
L 235.012145 106.683677 
L 235.012145 107.608376 
L 238.720917 107.608376 
L 238.720917 108.555363 
L 242.429689 108.555363 
L 242.429689 108.375094 
L 246.13846 108.375094 
L 246.13846 108.464747 
L 249.847232 108.464747 
L 249.847232 110.685713 
L 253.556003 110.685713 
L 253.556003 111.126978 
L 257.264775 111.126978 
L 257.264775 112.319253 
L 260.973547 112.319253 
L 260.973547 113.652316 
L 264.682318 113.652316 
L 264.682318 112.511131 
L 268.39109 112.511131 
L 268.39109 113.596956 
L 272.099861 113.596956 
L 272.099861 113.877457 
L 275.808633 113.877457 
L 275.808633 115.508433 
L 279.517405 115.508433 
L 279.517405 117.02001 
L 283.226176 117.02001 
L 283.226176 116.007279 
L 286.934948 116.007279 
L 286.934948 117.891121 
L 290.643719 117.891121 
L 290.643719 119.177226 
L 294.352491 119.177226 
L 294.352491 119.844069 
L 298.061263 119.844069 
L 298.061263 121.785934 
L 301.770034 121.785934 
L 301.770034 120.568137 
L 305.478806 120.568137 
L 305.478806 123.74287 
L 309.187577 123.74287 
L 309.187577 121.222906 
L 312.896349 121.222906 
L 312.896349 124.51088 
L 316.605121 124.51088 
L 316.605121 124.714319 
L 320.313892 124.714319 
L 320.313892 122.871759 
L 324.022664 122.871759 
L 324.022664 125.136521 
L 327.731435 125.136521 
L 327.731435 124.312229 
L 331.440207 124.312229 
L 331.440207 125.136521 
L 335.148978 125.136521 
L 335.148978 128.890687 
L 338.85775 128.890687 
L 338.85775 128.559575 
L 342.566522 128.559575 
L 342.566522 127.074655 
L 346.275293 127.074655 
L 346.275293 131.664014 
L 349.984065 131.664014 
L 349.984065 129.969894 
L 353.692836 129.969894 
L 353.692836 129.594619 
L 357.401608 129.594619 
L 357.401608 132.146561 
L 361.11038 132.146561 
L 361.11038 129.969894 
L 364.819151 129.969894 
L 364.819151 133.785683 
L 368.527923 133.785683 
L 368.527923 133.203225 
L 372.236694 133.203225 
L 372.236694 133.203225 
L 375.945466 133.203225 
L 375.945466 135.821642 
L 379.654238 135.821642 
L 379.654238 138.510121 
L 383.363009 138.510121 
L 383.363009 135.821642 
L 387.071781 135.821642 
L 387.071781 138.510121 
L 390.780552 138.510121 
L 390.780552 137.515762 
L 394.489324 137.515762 
L 394.489324 139.637432 
L 398.198096 139.637432 
L 398.198096 140.938816 
L 401.906867 140.938816 
L 401.906867 142.478027 
L 405.615639 142.478027 
L 405.615639 150.213619 
L 409.32441 150.213619 
L 409.32441 150.213619 
L 413.033182 150.213619 
L 413.033182 144.36187 
L 416.741954 144.36187 
L 416.741954 146.790565 
L 420.450725 146.790565 
L 420.450725 142.478027 
L 424.159497 142.478027 
L 424.159497 150.213619 
L 427.868268 150.213619 
L 427.868268 150.213619 
L 431.57704 150.213619 
L 431.57704 150.213619 
L 435.285812 150.213619 
L 435.285812 19595.154435 
L 438.994583 19595.154435 
L 438.994583 146.790565 
L 442.703355 146.790565 
L 442.703355 150.213619 
L 446.412126 150.213619 
L 446.412126 19595.154435 
L 450.120898 19595.154435 
L 450.120898 156.065368 
L 453.82967 156.065368 
L 453.82967 156.065368 
L 457.538441 156.065368 
L 457.538441 150.213619 
L 461.247213 150.213619 
L 461.247213 150.213619 
L 464.955984 150.213619 
L 464.955984 19595.154435 
L 468.664756 19595.154435 
L 468.664756 19595.154435 
L 472.373527 19595.154435 
L 472.373527 19595.154435 
L 476.082299 19595.154435 
L 476.082299 19595.154435 
L 479.791071 19595.154435 
L 479.791071 19595.154435 
L 483.499842 19595.154435 
L 483.499842 156.065368 
L 485.354228 156.065368 
L 485.354228 19595.154435 
L 485.354228 19595.154435 
L 483.499842 19595.154435 
L 483.499842 19595.154435 
L 479.791071 19595.154435 
L 479.791071 19595.154435 
L 476.082299 19595.154435 
L 476.082299 19595.154435 
L 472.373527 19595.154435 
L 472.373527 19595.154435 
L 468.664756 19595.154435 
L 468.664756 19595.154435 
L 464.955984 19595.154435 
L 464.955984 19595.154435 
L 461.247213 19595.154435 
L 461.247213 19595.154435 
L 457.538441 19595.154435 
L 457.538441 19595.154435 
L 453.82967 19595.154435 
L 453.82967 19595.154435 
L 450.120898 19595.154435 
L 450.120898 19595.154435 
L 446.412126 19595.154435 
L 446.412126 19595.154435 
L 442.703355 19595.154435 
L 442.703355 19595.154435 
L 438.994583 19595.154435 
L 438.994583 19595.154435 
L 435.285812 19595.154435 
L 435.285812 19595.154435 
L 431.57704 19595.154435 
L 431.57704 19595.154435 
L 427.868268 19595.154435 
L 427.868268 19595.154435 
L 424.159497 19595.154435 
L 424.159497 19595.154435 
L 420.450725 19595.154435 
L 420.450725 19595.154435 
L 416.741954 19595.154435 
L 416.741954 19595.154435 
L 413.033182 19595.154435 
L 413.033182 19595.154435 
L 409.32441 19595.154435 
L 409.32441 19595.154435 
L 405.615639 19595.154435 
L 405.615639 19595.154435 
L 401.906867 19595.154435 
L 401.906867 19595.154435 
L 398.198096 19595.154435 
L 398.198096 19595.154435 
L 394.489324 19595.154435 
L 394.489324 19595.154435 
L 390.780552 19595.154435 
L 390.780552 19595.154435 
L 387.071781 19595.154435 
L 387.071781 19595.154435 
L 383.363009 19595.154435 
L 383.363009 19595.154435 
L 379.654238 19595.154435 
L 379.654238 19595.154435 
L 375.945466 19595.154435 
L 375.945466 19595.154435 
L 372.236694 19595.154435 
L 372.236694 19595.154435 
L 368.527923 19595.154435 
L 368.527923 19595.154435 
L 364.819151 19595.154435 
L 364.819151 19595.154435 
L 361.11038 19595.154435 
L 361.11038 19595.154435 
L 357.401608 19595.154435 
L 357.401608 19595.154435 
L 353.692836 19595.154435 
L 353.692836 19595.154435 
L 349.984065 19595.154435 
L 349.984065 19595.154435 
L 346.275293 19595.154435 
L 346.275293 19595.154435 
L 342.566522 19595.154435 
L 342.566522 19595.154435 
L 338.85775 19595.154435 
L 338.85775 19595.154435 
L 335.148978 19595.154435 
L 335.148978 19595.154435 
L 331.440207 19595.154435 
L 331.440207 19595.154435 
L 327.731435 19595.154435 
L 327.731435 19595.154435 
L 324.022664 19595.154435 
L 324.022664 19595.154435 
L 320.313892 19595.154435 
L 320.313892 19595.154435 
L 316.605121 19595.154435 
L 316.605121 19595.154435 
L 312.896349 19595.154435 
L 312.896349 19595.154435 
L 309.187577 19595.154435 
L 309.187577 19595.154435 
L 305.478806 19595.154435 
L 305.478806 19595.154435 
L 301.770034 19595.154435 
L 301.770034 19595.154435 
L 298.061263 19595.154435 
L 298.061263 19595.154435 
L 294.352491 19595.154435 
L 294.352491 19595.154435 
L 290.643719 19595.154435 
L 290.643719 19595.154435 
L 286.934948 19595.154435 
L 286.934948 19595.154435 
L 283.226176 19595.154435 
L 283.226176 19595.154435 
L 279.517405 19595.154435 
L 279.517405 19595.154435 
L 275.808633 19595.154435 
L 275.808633 19595.154435 
L 272.099861 19595.154435 
L 272.099861 19595.154435 
L 268.39109 19595.154435 
L 268.39109 19595.154435 
L 264.682318 19595.154435 
L 264.682318 19595.154435 
L 260.973547 19595.154435 
L 260.973547 19595.154435 
L 257.264775 19595.154435 
L 257.264775 19595.154435 
L 253.556003 19595.154435 
L 253.556003 19595.154435 
L 249.847232 19595.154435 
L 249.847232 19595.154435 
L 246.13846 19595.154435 
L 246.13846 19595.154435 
L 242.429689 19595.154435 
L 242.429689 19595.154435 
L 238.720917 19595.154435 
L 238.720917 19595.154435 
L 235.012145 19595.154435 
L 235.012145 19595.154435 
L 231.303374 19595.154435 
L 231.303374 19595.154435 
L 227.594602 19595.154435 
L 227.594602 19595.154435 
L 223.885831 19595.154435 
L 223.885831 19595.154435 
L 220.177059 19595.154435 
L 220.177059 19595.154435 
L 216.468287 19595.154435 
L 216.468287 19595.154435 
L 212.759516 19595.154435 
L 212.759516 19595.154435 
L 209.050744 19595.154435 
L 209.050744 19595.154435 
L 205.341973 19595.154435 
L 205.341973 19595.154435 
L 201.633201 19595.154435 
L 201.633201 19595.154435 
L 197.924429 19595.154435 
L 197.924429 19595.154435 
L 194.215658 19595.154435 
L 194.215658 19595.154435 
L 190.506886 19595.154435 
L 190.506886 19595.154435 
L 186.798115 19595.154435 
L 186.798115 19595.154435 
L 183.089343 19595.154435 
L 183.089343 19595.154435 
L 179.380572 19595.154435 
L 179.380572 19595.154435 
L 175.6718 19595.154435 
L 175.6718 19595.154435 
L 171.963028 19595.154435 
L 171.963028 19595.154435 
L 168.254257 19595.154435 
L 168.254257 19595.154435 
L 164.545485 19595.154435 
L 164.545485 19595.154435 
L 160.836714 19595.154435 
L 160.836714 19595.154435 
L 157.127942 19595.154435 
L 157.127942 19595.154435 
L 153.41917 19595.154435 
L 153.41917 19595.154435 
L 149.710399 19595.154435 
L 149.710399 19595.154435 
L 146.001627 19595.154435 
L 146.001627 19595.154435 
L 142.292856 19595.154435 
L 142.292856 19595.154435 
L 138.584084 19595.154435 
L 138.584084 19595.154435 
L 134.875312 19595.154435 
L 134.875312 19595.154435 
L 131.166541 19595.154435 
L 131.166541 19595.154435 
L 127.457769 19595.154435 
L 127.457769 19595.154435 
L 123.748998 19595.154435 
L 123.748998 19595.154435 
L 120.040226 19595.154435 
L 120.040226 19595.154435 
L 116.331454 19595.154435 
L 116.331454 19595.154435 
L 112.622683 19595.154435 
L 112.622683 19595.154435 
L 108.913911 19595.154435 
L 108.913911 19595.154435 
L 105.20514 19595.154435 
L 105.20514 19595.154435 
L 101.496368 19595.154435 
L 101.496368 19595.154435 
L 97.787596 19595.154435 
L 97.787596 19595.154435 
L 94.078825 19595.154435 
L 94.078825 19595.154435 
L 90.370053 19595.154435 
L 90.370053 19595.154435 
L 86.661282 19595.154435 
L 86.661282 19595.154435 
L 82.95251 19595.154435 
L 82.95251 19595.154435 
L 79.243738 19595.154435 
L 79.243738 19595.154435 
L 75.534967 19595.154435 
L 75.534967 19595.154435 
L 71.826195 19595.154435 
L 71.826195 19595.154435 
L 68.117424 19595.154435 
L 68.117424 19595.154435 
L 64.408652 19595.154435 
L 64.408652 19595.154435 
L 60.69988 19595.154435 
L 60.69988 19595.154435 
L 56.991109 19595.154435 
L 56.991109 19595.154435 
L 53.282337 19595.154435 
L 53.282337 19595.154435 
L 49.573566 19595.154435 
L 49.573566 19595.154435 
L 47.71918 19595.154435 
z
" clip-path="url(#pffb10c9510)" style="fill: #cbd5e1; stroke: #cbd5e1; stroke-width: 0.65"/>
   </g>
   <g id="matplotlib.axis_1">
    <g id="xtick_1">
     <g id="line2d_1">
      <defs>
       <path id="mbedc0253e1" d="M 0 0 
L 0 2 
" style="stroke: #000000; stroke-width: 0.45"/>
      </defs>
      <g>
       <use xlink:href="#mbedc0253e1" x="45.864794" y="161.61876" style="stroke: #000000; stroke-width: 0.45"/>
      </g>
     </g>
     <g id="text_1">
      <text style="font-size: 5px; font-family: 'Arial'; text-anchor: middle" x="45.864794" y="170.697666" transform="rotate(-0 45.864794 170.697666)">0.0</text>
     </g>
    </g>
    <g id="xtick_2">
     <g id="line2d_2">
      <g>
       <use xlink:href="#mbedc0253e1" x="101.640078" y="161.61876" style="stroke: #000000; stroke-width: 0.45"/>
      </g>
     </g>
     <g id="text_2">
      <text style="font-size: 5px; font-family: 'Arial'; text-anchor: middle" x="101.640078" y="170.697666" transform="rotate(-0 101.640078 170.697666)">0.1</text>
     </g>
    </g>
    <g id="xtick_3">
     <g id="line2d_3">
      <g>
       <use xlink:href="#mbedc0253e1" x="157.415362" y="161.61876" style="stroke: #000000; stroke-width: 0.45"/>
      </g>
     </g>
     <g id="text_3">
      <text style="font-size: 5px; font-family: 'Arial'; text-anchor: middle" x="157.415362" y="170.697666" transform="rotate(-0 157.415362 170.697666)">0.2</text>
     </g>
    </g>
    <g id="xtick_4">
     <g id="line2d_4">
      <g>
       <use xlink:href="#mbedc0253e1" x="213.190646" y="161.61876" style="stroke: #000000; stroke-width: 0.45"/>
      </g>
     </g>
     <g id="text_4">
      <text style="font-size: 5px; font-family: 'Arial'; text-anchor: middle" x="213.190646" y="170.697666" transform="rotate(-0 213.190646 170.697666)">0.3</text>
     </g>
    </g>
    <g id="xtick_5">
     <g id="line2d_5">
      <g>
       <use xlink:href="#mbedc0253e1" x="268.96593" y="161.61876" style="stroke: #000000; stroke-width: 0.45"/>
      </g>
     </g>
     <g id="text_5">
      <text style="font-size: 5px; font-family: 'Arial'; text-anchor: middle" x="268.96593" y="170.697666" transform="rotate(-0 268.96593 170.697666)">0.4</text>
     </g>
    </g>
    <g id="xtick_6">
     <g id="line2d_6">
      <g>
       <use xlink:href="#mbedc0253e1" x="324.741215" y="161.61876" style="stroke: #000000; stroke-width: 0.45"/>
      </g>
     </g>
     <g id="text_6">
      <text style="font-size: 5px; font-family: 'Arial'; text-anchor: middle" x="324.741215" y="170.697666" transform="rotate(-0 324.741215 170.697666)">0.5</text>
     </g>
    </g>
    <g id="xtick_7">
     <g id="line2d_7">
      <g>
       <use xlink:href="#mbedc0253e1" x="380.516499" y="161.61876" style="stroke: #000000; stroke-width: 0.45"/>
      </g>
     </g>
     <g id="text_7">
      <text style="font-size: 5px; font-family: 'Arial'; text-anchor: middle" x="380.516499" y="170.697666" transform="rotate(-0 380.516499 170.697666)">0.6</text>
     </g>
    </g>
    <g id="xtick_8">
     <g id="line2d_8">
      <g>
       <use xlink:href="#mbedc0253e1" x="436.291783" y="161.61876" style="stroke: #000000; stroke-width: 0.45"/>
      </g>
     </g>
     <g id="text_8">
      <text style="font-size: 5px; font-family: 'Arial'; text-anchor: middle" x="436.291783" y="170.697666" transform="rotate(-0 436.291783 170.697666)">0.7</text>
     </g>
    </g>
    <g id="xtick_9">
     <g id="line2d_9">
      <g>
       <use xlink:href="#mbedc0253e1" x="492.067067" y="161.61876" style="stroke: #000000; stroke-width: 0.45"/>
      </g>
     </g>
     <g id="text_9">
      <text style="font-size: 5px; font-family: 'Arial'; text-anchor: middle" x="492.067067" y="170.697666" transform="rotate(-0 492.067067 170.697666)">0.8</text>
     </g>
    </g>
    <g id="text_10">
     <text style="font-size: 6px; font-family: 'Arial'; text-anchor: middle" x="266.536704" y="180.059229" transform="rotate(-0 266.536704 180.059229)">TopoLink-CCI score</text>
    </g>
   </g>
   <g id="matplotlib.axis_2">
    <g id="ytick_1">
     <g id="line2d_10">
      <path d="M 25.837428 156.065368 
L 507.23598 156.065368 
" clip-path="url(#pffb10c9510)" style="fill: none; stroke: #e5e7eb; stroke-width: 0.35; stroke-linecap: square"/>
     </g>
     <g id="line2d_11">
      <defs>
       <path id="mb52cac4fa8" d="M 0 0 
L -2 0 
" style="stroke: #000000; stroke-width: 0.45"/>
      </defs>
      <g>
       <use xlink:href="#mb52cac4fa8" x="25.837428" y="156.065368" style="stroke: #000000; stroke-width: 0.45"/>
      </g>
     </g>
     <g id="text_11">
      <!-- $\mathdefault{10^{0}}$ -->
      <g transform="translate(12.487428 158.643493)">
       <text>
        <tspan x="0" y="-0.999688" style="font-size: 5px; font-family: 'Arial'">1</tspan>
        <tspan x="2.780762" y="-0.999688" style="font-size: 5px; font-family: 'Arial'">0</tspan>
        <tspan x="5.648641" y="-4.484375" style="font-size: 3.5px; font-family: 'Arial'">0</tspan>
       </text>
      </g>
     </g>
    </g>
    <g id="ytick_2">
     <g id="line2d_12">
      <path d="M 25.837428 136.626279 
L 507.23598 136.626279 
" clip-path="url(#pffb10c9510)" style="fill: none; stroke: #e5e7eb; stroke-width: 0.35; stroke-linecap: square"/>
     </g>
     <g id="line2d_13">
      <g>
       <use xlink:href="#mb52cac4fa8" x="25.837428" y="136.626279" style="stroke: #000000; stroke-width: 0.45"/>
      </g>
     </g>
     <g id="text_12">
      <!-- $\mathdefault{10^{1}}$ -->
      <g transform="translate(12.487428 139.204404)">
       <text>
        <tspan x="0" y="-0.999688" style="font-size: 5px; font-family: 'Arial'">1</tspan>
        <tspan x="2.780762" y="-0.999688" style="font-size: 5px; font-family: 'Arial'">0</tspan>
        <tspan x="5.648641" y="-4.484375" style="font-size: 3.5px; font-family: 'Arial'">1</tspan>
       </text>
      </g>
     </g>
    </g>
    <g id="ytick_3">
     <g id="line2d_14">
      <path d="M 25.837428 117.187189 
L 507.23598 117.187189 
" clip-path="url(#pffb10c9510)" style="fill: none; stroke: #e5e7eb; stroke-width: 0.35; stroke-linecap: square"/>
     </g>
     <g id="line2d_15">
      <g>
       <use xlink:href="#mb52cac4fa8" x="25.837428" y="117.187189" style="stroke: #000000; stroke-width: 0.45"/>
      </g>
     </g>
     <g id="text_13">
      <!-- $\mathdefault{10^{2}}$ -->
      <g transform="translate(12.487428 119.765314)">
       <text>
        <tspan x="0" y="-0.999688" style="font-size: 5px; font-family: 'Arial'">1</tspan>
        <tspan x="2.780762" y="-0.999688" style="font-size: 5px; font-family: 'Arial'">0</tspan>
        <tspan x="5.648641" y="-4.484375" style="font-size: 3.5px; font-family: 'Arial'">2</tspan>
       </text>
      </g>
     </g>
    </g>
    <g id="ytick_4">
     <g id="line2d_16">
      <path d="M 25.837428 97.7481 
L 507.23598 97.7481 
" clip-path="url(#pffb10c9510)" style="fill: none; stroke: #e5e7eb; stroke-width: 0.35; stroke-linecap: square"/>
     </g>
     <g id="line2d_17">
      <g>
       <use xlink:href="#mb52cac4fa8" x="25.837428" y="97.7481" style="stroke: #000000; stroke-width: 0.45"/>
      </g>
     </g>
     <g id="text_14">
      <!-- $\mathdefault{10^{3}}$ -->
      <g transform="translate(12.487428 100.326225)">
       <text>
        <tspan x="0" y="-0.999688" style="font-size: 5px; font-family: 'Arial'">1</tspan>
        <tspan x="2.780762" y="-0.999688" style="font-size: 5px; font-family: 'Arial'">0</tspan>
        <tspan x="5.648641" y="-4.484375" style="font-size: 3.5px; font-family: 'Arial'">3</tspan>
       </text>
      </g>
     </g>
    </g>
    <g id="ytick_5">
     <g id="line2d_18">
      <path d="M 25.837428 78.309011 
L 507.23598 78.309011 
" clip-path="url(#pffb10c9510)" style="fill: none; stroke: #e5e7eb; stroke-width: 0.35; stroke-linecap: square"/>
     </g>
     <g id="line2d_19">
      <g>
       <use xlink:href="#mb52cac4fa8" x="25.837428" y="78.309011" style="stroke: #000000; stroke-width: 0.45"/>
      </g>
     </g>
     <g id="text_15">
      <!-- $\mathdefault{10^{4}}$ -->
      <g transform="translate(12.487428 80.862136)">
       <text>
        <tspan x="0" y="-0.010625" style="font-size: 5px; font-family: 'Arial'">1</tspan>
        <tspan x="2.780762" y="-0.010625" style="font-size: 5px; font-family: 'Arial'">0</tspan>
        <tspan x="5.648641" y="-3.495313" style="font-size: 3.5px; font-family: 'Arial'">4</tspan>
       </text>
      </g>
     </g>
    </g>
    <g id="ytick_6">
     <g id="line2d_20">
      <path d="M 25.837428 58.869922 
L 507.23598 58.869922 
" clip-path="url(#pffb10c9510)" style="fill: none; stroke: #e5e7eb; stroke-width: 0.35; stroke-linecap: square"/>
     </g>
     <g id="line2d_21">
      <g>
       <use xlink:href="#mb52cac4fa8" x="25.837428" y="58.869922" style="stroke: #000000; stroke-width: 0.45"/>
      </g>
     </g>
     <g id="text_16">
      <!-- $\mathdefault{10^{5}}$ -->
      <g transform="translate(12.487428 61.423047)">
       <text>
        <tspan x="0" y="-0.043438" style="font-size: 5px; font-family: 'Arial'">1</tspan>
        <tspan x="2.780762" y="-0.043438" style="font-size: 5px; font-family: 'Arial'">0</tspan>
        <tspan x="5.648641" y="-3.528125" style="font-size: 3.5px; font-family: 'Arial'">5</tspan>
       </text>
      </g>
     </g>
    </g>
    <g id="ytick_7">
     <g id="line2d_22">
      <defs>
       <path id="m28cc340351" d="M 0 0 
L -2 0 
" style="stroke: #000000; stroke-width: 0.6"/>
      </defs>
      <g>
       <use xlink:href="#m28cc340351" x="25.837428" y="160.377905" style="stroke: #000000; stroke-width: 0.6"/>
      </g>
     </g>
    </g>
    <g id="ytick_8">
     <g id="line2d_23">
      <g>
       <use xlink:href="#m28cc340351" x="25.837428" y="159.076521" style="stroke: #000000; stroke-width: 0.6"/>
      </g>
     </g>
    </g>
    <g id="ytick_9">
     <g id="line2d_24">
      <g>
       <use xlink:href="#m28cc340351" x="25.837428" y="157.94921" style="stroke: #000000; stroke-width: 0.6"/>
      </g>
     </g>
    </g>
    <g id="ytick_10">
     <g id="line2d_25">
      <g>
       <use xlink:href="#m28cc340351" x="25.837428" y="156.954852" style="stroke: #000000; stroke-width: 0.6"/>
      </g>
     </g>
    </g>
    <g id="ytick_11">
     <g id="line2d_26">
      <g>
       <use xlink:href="#m28cc340351" x="25.837428" y="150.213619" style="stroke: #000000; stroke-width: 0.6"/>
      </g>
     </g>
    </g>
    <g id="ytick_12">
     <g id="line2d_27">
      <g>
       <use xlink:href="#m28cc340351" x="25.837428" y="146.790565" style="stroke: #000000; stroke-width: 0.6"/>
      </g>
     </g>
    </g>
    <g id="ytick_13">
     <g id="line2d_28">
      <g>
       <use xlink:href="#m28cc340351" x="25.837428" y="144.36187" style="stroke: #000000; stroke-width: 0.6"/>
      </g>
     </g>
    </g>
    <g id="ytick_14">
     <g id="line2d_29">
      <g>
       <use xlink:href="#m28cc340351" x="25.837428" y="142.478027" style="stroke: #000000; stroke-width: 0.6"/>
      </g>
     </g>
    </g>
    <g id="ytick_15">
     <g id="line2d_30">
      <g>
       <use xlink:href="#m28cc340351" x="25.837428" y="140.938816" style="stroke: #000000; stroke-width: 0.6"/>
      </g>
     </g>
    </g>
    <g id="ytick_16">
     <g id="line2d_31">
      <g>
       <use xlink:href="#m28cc340351" x="25.837428" y="139.637432" style="stroke: #000000; stroke-width: 0.6"/>
      </g>
     </g>
    </g>
    <g id="ytick_17">
     <g id="line2d_32">
      <g>
       <use xlink:href="#m28cc340351" x="25.837428" y="138.510121" style="stroke: #000000; stroke-width: 0.6"/>
      </g>
     </g>
    </g>
    <g id="ytick_18">
     <g id="line2d_33">
      <g>
       <use xlink:href="#m28cc340351" x="25.837428" y="137.515762" style="stroke: #000000; stroke-width: 0.6"/>
      </g>
     </g>
    </g>
    <g id="ytick_19">
     <g id="line2d_34">
      <g>
       <use xlink:href="#m28cc340351" x="25.837428" y="130.77453" style="stroke: #000000; stroke-width: 0.6"/>
      </g>
     </g>
    </g>
    <g id="ytick_20">
     <g id="line2d_35">
      <g>
       <use xlink:href="#m28cc340351" x="25.837428" y="127.351476" style="stroke: #000000; stroke-width: 0.6"/>
      </g>
     </g>
    </g>
    <g id="ytick_21">
     <g id="line2d_36">
      <g>
       <use xlink:href="#m28cc340351" x="25.837428" y="124.922781" style="stroke: #000000; stroke-width: 0.6"/>
      </g>
     </g>
    </g>
    <g id="ytick_22">
     <g id="line2d_37">
      <g>
       <use xlink:href="#m28cc340351" x="25.837428" y="123.038938" style="stroke: #000000; stroke-width: 0.6"/>
      </g>
     </g>
    </g>
    <g id="ytick_23">
     <g id="line2d_38">
      <g>
       <use xlink:href="#m28cc340351" x="25.837428" y="121.499727" style="stroke: #000000; stroke-width: 0.6"/>
      </g>
     </g>
    </g>
    <g id="ytick_24">
     <g id="line2d_39">
      <g>
       <use xlink:href="#m28cc340351" x="25.837428" y="120.198342" style="stroke: #000000; stroke-width: 0.6"/>
      </g>
     </g>
    </g>
    <g id="ytick_25">
     <g id="line2d_40">
      <g>
       <use xlink:href="#m28cc340351" x="25.837428" y="119.071032" style="stroke: #000000; stroke-width: 0.6"/>
      </g>
     </g>
    </g>
    <g id="ytick_26">
     <g id="line2d_41">
      <g>
       <use xlink:href="#m28cc340351" x="25.837428" y="118.076673" style="stroke: #000000; stroke-width: 0.6"/>
      </g>
     </g>
    </g>
    <g id="ytick_27">
     <g id="line2d_42">
      <g>
       <use xlink:href="#m28cc340351" x="25.837428" y="111.335441" style="stroke: #000000; stroke-width: 0.6"/>
      </g>
     </g>
    </g>
    <g id="ytick_28">
     <g id="line2d_43">
      <g>
       <use xlink:href="#m28cc340351" x="25.837428" y="107.912387" style="stroke: #000000; stroke-width: 0.6"/>
      </g>
     </g>
    </g>
    <g id="ytick_29">
     <g id="line2d_44">
      <g>
       <use xlink:href="#m28cc340351" x="25.837428" y="105.483692" style="stroke: #000000; stroke-width: 0.6"/>
      </g>
     </g>
    </g>
    <g id="ytick_30">
     <g id="line2d_45">
      <g>
       <use xlink:href="#m28cc340351" x="25.837428" y="103.599849" style="stroke: #000000; stroke-width: 0.6"/>
      </g>
     </g>
    </g>
    <g id="ytick_31">
     <g id="line2d_46">
      <g>
       <use xlink:href="#m28cc340351" x="25.837428" y="102.060638" style="stroke: #000000; stroke-width: 0.6"/>
      </g>
     </g>
    </g>
    <g id="ytick_32">
     <g id="line2d_47">
      <g>
       <use xlink:href="#m28cc340351" x="25.837428" y="100.759253" style="stroke: #000000; stroke-width: 0.6"/>
      </g>
     </g>
    </g>
    <g id="ytick_33">
     <g id="line2d_48">
      <g>
       <use xlink:href="#m28cc340351" x="25.837428" y="99.631943" style="stroke: #000000; stroke-width: 0.6"/>
      </g>
     </g>
    </g>
    <g id="ytick_34">
     <g id="line2d_49">
      <g>
       <use xlink:href="#m28cc340351" x="25.837428" y="98.637584" style="stroke: #000000; stroke-width: 0.6"/>
      </g>
     </g>
    </g>
    <g id="ytick_35">
     <g id="line2d_50">
      <g>
       <use xlink:href="#m28cc340351" x="25.837428" y="91.896351" style="stroke: #000000; stroke-width: 0.6"/>
      </g>
     </g>
    </g>
    <g id="ytick_36">
     <g id="line2d_51">
      <g>
       <use xlink:href="#m28cc340351" x="25.837428" y="88.473298" style="stroke: #000000; stroke-width: 0.6"/>
      </g>
     </g>
    </g>
    <g id="ytick_37">
     <g id="line2d_52">
      <g>
       <use xlink:href="#m28cc340351" x="25.837428" y="86.044603" style="stroke: #000000; stroke-width: 0.6"/>
      </g>
     </g>
    </g>
    <g id="ytick_38">
     <g id="line2d_53">
      <g>
       <use xlink:href="#m28cc340351" x="25.837428" y="84.16076" style="stroke: #000000; stroke-width: 0.6"/>
      </g>
     </g>
    </g>
    <g id="ytick_39">
     <g id="line2d_54">
      <g>
       <use xlink:href="#m28cc340351" x="25.837428" y="82.621549" style="stroke: #000000; stroke-width: 0.6"/>
      </g>
     </g>
    </g>
    <g id="ytick_40">
     <g id="line2d_55">
      <g>
       <use xlink:href="#m28cc340351" x="25.837428" y="81.320164" style="stroke: #000000; stroke-width: 0.6"/>
      </g>
     </g>
    </g>
    <g id="ytick_41">
     <g id="line2d_56">
      <g>
       <use xlink:href="#m28cc340351" x="25.837428" y="80.192854" style="stroke: #000000; stroke-width: 0.6"/>
      </g>
     </g>
    </g>
    <g id="ytick_42">
     <g id="line2d_57">
      <g>
       <use xlink:href="#m28cc340351" x="25.837428" y="79.198495" style="stroke: #000000; stroke-width: 0.6"/>
      </g>
     </g>
    </g>
    <g id="ytick_43">
     <g id="line2d_58">
      <g>
       <use xlink:href="#m28cc340351" x="25.837428" y="72.457262" style="stroke: #000000; stroke-width: 0.6"/>
      </g>
     </g>
    </g>
    <g id="ytick_44">
     <g id="line2d_59">
      <g>
       <use xlink:href="#m28cc340351" x="25.837428" y="69.034209" style="stroke: #000000; stroke-width: 0.6"/>
      </g>
     </g>
    </g>
    <g id="ytick_45">
     <g id="line2d_60">
      <g>
       <use xlink:href="#m28cc340351" x="25.837428" y="66.605514" style="stroke: #000000; stroke-width: 0.6"/>
      </g>
     </g>
    </g>
    <g id="ytick_46">
     <g id="line2d_61">
      <g>
       <use xlink:href="#m28cc340351" x="25.837428" y="64.721671" style="stroke: #000000; stroke-width: 0.6"/>
      </g>
     </g>
    </g>
    <g id="ytick_47">
     <g id="line2d_62">
      <g>
       <use xlink:href="#m28cc340351" x="25.837428" y="63.18246" style="stroke: #000000; stroke-width: 0.6"/>
      </g>
     </g>
    </g>
    <g id="ytick_48">
     <g id="line2d_63">
      <g>
       <use xlink:href="#m28cc340351" x="25.837428" y="61.881075" style="stroke: #000000; stroke-width: 0.6"/>
      </g>
     </g>
    </g>
    <g id="ytick_49">
     <g id="line2d_64">
      <g>
       <use xlink:href="#m28cc340351" x="25.837428" y="60.753765" style="stroke: #000000; stroke-width: 0.6"/>
      </g>
     </g>
    </g>
    <g id="ytick_50">
     <g id="line2d_65">
      <g>
       <use xlink:href="#m28cc340351" x="25.837428" y="59.759406" style="stroke: #000000; stroke-width: 0.6"/>
      </g>
     </g>
    </g>
    <g id="ytick_51">
     <g id="line2d_66">
      <g>
       <use xlink:href="#m28cc340351" x="25.837428" y="53.018173" style="stroke: #000000; stroke-width: 0.6"/>
      </g>
     </g>
    </g>
    <g id="ytick_52">
     <g id="line2d_67">
      <g>
       <use xlink:href="#m28cc340351" x="25.837428" y="49.59512" style="stroke: #000000; stroke-width: 0.6"/>
      </g>
     </g>
    </g>
    <g id="ytick_53">
     <g id="line2d_68">
      <g>
       <use xlink:href="#m28cc340351" x="25.837428" y="47.166424" style="stroke: #000000; stroke-width: 0.6"/>
      </g>
     </g>
    </g>
    <g id="ytick_54">
     <g id="line2d_69">
      <g>
       <use xlink:href="#m28cc340351" x="25.837428" y="45.282582" style="stroke: #000000; stroke-width: 0.6"/>
      </g>
     </g>
    </g>
    <g id="ytick_55">
     <g id="line2d_70">
      <g>
       <use xlink:href="#m28cc340351" x="25.837428" y="43.743371" style="stroke: #000000; stroke-width: 0.6"/>
      </g>
     </g>
    </g>
    <g id="ytick_56">
     <g id="line2d_71">
      <g>
       <use xlink:href="#m28cc340351" x="25.837428" y="42.441986" style="stroke: #000000; stroke-width: 0.6"/>
      </g>
     </g>
    </g>
    <g id="ytick_57">
     <g id="line2d_72">
      <g>
       <use xlink:href="#m28cc340351" x="25.837428" y="41.314676" style="stroke: #000000; stroke-width: 0.6"/>
      </g>
     </g>
    </g>
    <g id="ytick_58">
     <g id="line2d_73">
      <g>
       <use xlink:href="#m28cc340351" x="25.837428" y="40.320317" style="stroke: #000000; stroke-width: 0.6"/>
      </g>
     </g>
    </g>
    <g id="text_17">
     <text style="font-size: 6px; font-family: 'Arial'; text-anchor: middle" x="7.294928" y="100.531446" transform="rotate(-90 7.294928 100.531446)">candidate axes</text>
    </g>
   </g>
   <g id="line2d_74">
    <path d="M 487.208614 161.61876 
L 487.208614 39.444132 
" clip-path="url(#pffb10c9510)" style="fill: none; stroke: #0f766e; stroke-opacity: 0.85; stroke-width: 0.9; stroke-linecap: square"/>
   </g>
   <g id="line2d_75">
    <path d="M 463.050472 161.61876 
L 463.050472 39.444132 
" clip-path="url(#pffb10c9510)" style="fill: none; stroke: #0f766e; stroke-opacity: 0.85; stroke-width: 0.9; stroke-linecap: square"/>
   </g>
   <g id="line2d_76">
    <path d="M 442.268998 161.61876 
L 442.268998 39.444132 
" clip-path="url(#pffb10c9510)" style="fill: none; stroke: #0f766e; stroke-opacity: 0.85; stroke-width: 0.9; stroke-linecap: square"/>
   </g>
   <g id="line2d_77">
    <path d="M 427.918633 161.61876 
L 427.918633 39.444132 
" clip-path="url(#pffb10c9510)" style="fill: none; stroke: #3f7f3f; stroke-opacity: 0.85; stroke-width: 0.9; stroke-linecap: square"/>
   </g>
   <g id="line2d_78">
    <path d="M 419.288602 161.61876 
L 419.288602 39.444132 
" clip-path="url(#pffb10c9510)" style="fill: none; stroke: #5b5f97; stroke-opacity: 0.85; stroke-width: 0.9; stroke-linecap: square"/>
   </g>
   <g id="line2d_79">
    <path d="M 414.9189 161.61876 
L 414.9189 39.444132 
" clip-path="url(#pffb10c9510)" style="fill: none; stroke: #8a5a2b; stroke-opacity: 0.85; stroke-width: 0.9; stroke-linecap: square"/>
   </g>
   <g id="line2d_80">
    <path d="M 399.434419 161.61876 
L 399.434419 39.444132 
" clip-path="url(#pffb10c9510)" style="fill: none; stroke: #7a7a7a; stroke-opacity: 0.85; stroke-width: 0.9; stroke-linecap: square"/>
   </g>
   <g id="patch_3">
    <path d="M 25.837428 161.61876 
L 25.837428 39.444132 
" style="fill: none; stroke: #000000; stroke-width: 0.45; stroke-linejoin: miter; stroke-linecap: square"/>
   </g>
   <g id="patch_4">
    <path d="M 25.837428 161.61876 
L 507.23598 161.61876 
" style="fill: none; stroke: #000000; stroke-width: 0.45; stroke-linejoin: miter; stroke-linecap: square"/>
   </g>
   <g id="text_18">
    <text style="font-weight: 700; font-size: 8px; font-family: 'Arial'; text-anchor: start; fill: #1f2933" x="25.837428" y="8.541744" transform="rotate(-0 25.837428 8.541744)">Fig. 2a</text>
   </g>
   <g id="text_19">
    <text style="font-size: 7px; font-family: 'Arial'; text-anchor: start" x="25.837428" y="33.444132" transform="rotate(-0 25.837428 33.444132)">Whole-dataset score landscape</text>
   </g>
  </g>
 </g>
 <defs>
  <clipPath id="pffb10c9510">
   <rect x="25.837428" y="39.444132" width="481.398553" height="122.174628"/>
  </clipPath>
 </defs>
</svg>
